<?xml version="1.0" encoding="UTF-8"?>
<svg width="208px" height="258px" viewBox="0 0 208 258" version="1.1" xmlns="http://www.w3.org/2000/svg">
    <title>Lincoln Portrait</title>
    <g stroke="none" stroke-width="1" fill="none" fill-rule="evenodd">
        <g id="Logos-/-Lincoln-Portrait" fill="#ffffff">
            <path d="M26.88,250.12 L28.93,254.64 L30.41,250.25 L31.75,250.25 L29.16,257.9 L26.88,252.93 L24.57,257.89 L22,250.25 L23.34,250.25 L24.8,254.65 L26.88,250.12 Z M81.65,250.12 L83.7,254.64 L85.18,250.25 L86.52,250.25 L83.93,257.9 L81.65,252.93 L79.34,257.89 L76.77,250.25 L78.11,250.25 L79.57,254.65 L81.65,250.12 Z M98.58,249.98 L103.59,254.89 L103.59,250.25 L104.91,250.25 L104.91,257.87 L99.9,252.98 L99.9,257.6 L98.58,257.6 L98.58,249.98 Z M170.29,250.12 C171.316001,250.098448 172.307312,250.491701 173.039522,251.210735 C173.771733,251.929769 174.18292,252.913777 174.180015,253.94 C174.179647,256.040537 172.483407,257.746694 170.382907,257.75936 C168.282407,257.771886 166.565827,256.086195 166.540283,253.985813 C166.514738,251.885431 168.189815,250.158492 170.29,250.12 L170.29,250.12 Z M145.69,250.12 C146.716001,250.098448 147.707312,250.491701 148.439522,251.210735 C149.171733,251.929769 149.58292,252.913777 149.580015,253.94 C149.579647,256.040537 147.883407,257.746694 145.782907,257.75936 C143.682407,257.771886 141.965827,256.086195 141.940283,253.985813 C141.914738,251.885431 143.589815,250.158492 145.69,250.12 L145.69,250.12 Z M57.88,250.25 C58.5065715,250.236551 59.1121428,250.476083 59.559977,250.914508 C60.0078112,251.352934 60.2601443,251.953284 60.26,252.58 L60.26,252.58 L60.24,252.6 C60.2654984,253.503019 59.738828,254.330644 58.91,254.69 L58.91,254.69 L60.69,257.62 L59.2,257.62 L57.63,255 L56.32,255 L56.32,257.6 L55,257.6 L55,250.25 Z M180.79,250.25 C181.416572,250.236551 182.022143,250.476083 182.469977,250.914508 C182.917811,251.352934 183.170144,251.953284 183.17,252.58 L183.17,252.58 L183.17,252.6 C183.193821,253.505437 182.662749,254.333751 181.83,254.69 L181.83,254.69 L183.62,257.62 L182.13,257.62 L180.56,255 L179.25,255 L179.25,257.6 L177.93,257.6 L177.93,250.25 Z M48.05,249.89 L51.68,257.6 L50.27,257.6 L49.62,256.18 L46.46,256.18 L45.8,257.6 L44.41,257.6 L48.05,249.89 Z M160.06,249.89 L163.68,257.6 L162.28,257.6 L161.63,256.18 L158.46,256.18 L157.81,257.6 L156.42,257.6 L160.06,249.89 Z M189.75,249.89 L193.37,257.6 L191.97,257.6 L191.32,256.18 L188.15,256.18 L187.5,257.6 L186.11,257.6 L189.75,249.89 Z M111.89,249.89 L115.52,257.6 L114.11,257.6 L113.46,256.18 L110.3,256.18 L109.64,257.6 L108.25,257.6 L111.89,249.89 Z M91.64,249.89 L95.27,257.6 L93.86,257.6 L93.21,256.18 L90.05,256.18 L89.39,257.6 L88,257.6 L91.64,249.89 Z M130.92,249.89 L134.54,257.6 L133.14,257.6 L132.49,256.18 L129.32,256.18 L128.67,257.6 L127.28,257.6 L130.92,249.89 Z M120.18,250.25 L120.18,253.59 L123.05,250.25 L124.64,250.25 L121.5,253.84 L124.75,257.6 L123.13,257.6 L120.18,254.16 L120.18,257.6 L118.86,257.6 L118.86,250.25 L120.18,250.25 Z M197.82,250.25 L197.82,253.59 L200.69,250.25 L202.28,250.25 L199.14,253.84 L202.4,257.6 L200.78,257.6 L197.82,254.16 L197.82,257.6 L196.51,257.6 L196.51,250.25 L197.82,250.25 Z M207.24,250.25 L207.24,257.6 L205.92,257.6 L205.92,250.25 L207.24,250.25 Z M5.3,250.25 L5.3,251.44 L3.31,251.44 L3.31,257.6 L1.99,257.6 L1.99,251.44 L-5.48450174e-13,251.44 L-5.48450174e-13,250.25 L5.3,250.25 Z M36.22,250.25 L36.22,253.12 L39.75,253.12 L39.75,250.25 L41.06,250.25 L41.06,257.6 L39.75,257.6 L39.75,254.31 L36.22,254.31 L36.22,257.6 L34.9,257.6 L34.9,250.25 L36.22,250.25 Z M69.15,250.25 L69.15,251.44 L65.79,251.44 L65.79,253.19 L68.94,253.19 L68.94,254.38 L65.79,254.38 L65.79,256.41 L69.23,256.41 L69.23,257.6 L64.47,257.6 L64.47,250.25 L69.15,250.25 Z M13.75,250.25 L13.75,251.44 L10.39,251.44 L10.39,253.19 L13.54,253.19 L13.54,254.38 L10.39,254.38 L10.39,256.41 L13.82,256.41 L13.82,257.6 L9.07,257.6 L9.07,250.25 L13.75,250.25 Z M171.241527,251.498628 C170.252928,251.091492 169.116245,251.323345 168.366077,252.085144 C167.615908,252.846943 167.401569,253.987058 167.823865,254.969277 C168.246162,255.951497 169.221039,256.580319 170.29,256.56 C170.983796,256.568426 171.651069,256.293771 172.137905,255.799387 C172.62474,255.305004 172.889098,254.633584 172.87,253.94 C172.873872,252.870853 172.230127,251.905765 171.241527,251.498628 Z M145.69,251.31 C144.303078,251.395643 143.222096,252.545437 143.222096,253.935 C143.222096,255.324563 144.303078,256.474357 145.69,256.56 C147.076922,256.474357 148.157904,255.324563 148.157904,253.935 C148.157904,252.545437 147.076922,251.395643 145.69,251.31 Z M189.73,252.64 L188.65,255.04 L190.82,255.04 L189.73,252.64 Z M130.9,252.64 L129.82,255.04 L132,255 L130.9,252.64 Z M111.88,252.64 L110.79,255.04 L113,255 L111.88,252.64 Z M48.09,252.6 L47,255 L49.18,255 L48.09,252.6 Z M91.6,252.6 L90.51,255 L92.68,255 L91.6,252.6 Z M160.09,252.6 L159,255 L161.17,255 L160.09,252.6 Z M180.76,251.459999 L179.25,251.459999 L179.25,253.82 L180.65,253.82 C180.975821,253.840207 181.294878,253.720988 181.52761,253.492071 C181.760343,253.263153 181.884819,252.946111 181.87,252.62 C181.883661,252.317046 181.772773,252.021694 181.563109,251.802585 C181.353445,251.583477 181.063262,251.459692 180.76,251.459999 L180.76,251.459999 Z M57.83,251.46 L56.32,251.46 L56.32,253.82 L57.72,253.82 L57.78,253.8 C58.1058213,253.820207 58.4248775,253.700988 58.6576104,253.472071 C58.8903433,253.243153 59.0148194,252.926111 59,252.6 C59.0088495,252.289739 58.8873894,251.989946 58.6650811,251.773338 C58.4427728,251.55673 58.1399263,251.443096 57.83,251.46 L57.83,251.46 Z M93.32,248 L93.32,249.01 L89.89,249.01 L89.89,248 L93.32,248 Z M78.41,219.23 L81.62,225.57 L84.87,219.23 L88.53,219.23 L81.62,232.35 L74.75,219.23 L78.41,219.23 Z M47,218.73 L55.25,225.46 L55.25,219.23 L58.5,219.23 L58.5,232.17 L50.25,225.39 L50.25,231.67 L47,231.67 L47,218.73 Z M39.93,219.23 L39.93,226.36 C39.93,230.12 37.37,231.89 34.35,231.89 C31.33,231.89 28.76,230.12 28.76,226.36 L28.76,226.36 L28.76,219.27 L32.15,219.27 L32.15,226 C32.15,228.14 33.03,228.82 34.35,228.82 C35.67,228.82 36.54,228.14 36.54,226 L36.54,226 L36.54,219.23 L39.93,219.23 Z M132.04,219.06 C133.335924,219.003158 134.623544,219.293132 135.77,219.9 L135.77,219.9 L135.77,223.06 C134.721005,222.36222 133.478975,222.012353 132.22,222.06 C131.04,222.06 130.49,222.35 130.49,222.75 C130.49,223.57 132.41,223.92 133.72,224.32 L133.72,224.32 L133.74,224.33 C136.24,225.1 136.9,226.15 136.9,227.92 C136.9,230.22 135.33,231.86 131.72,231.86 C130.151228,231.899172 128.596491,231.555963 127.19,230.86 L127.19,230.86 L127.19,227.47 C128.450376,228.420595 130.00296,228.901578 131.58,228.83 C132.81,228.83 133.58,228.67 133.58,227.92 C133.58,227.17 131.74,226.95 129.95,226.27 C128.361395,225.851329 127.255816,224.412843 127.26,222.77 C127.26,220.33 129.56,219.06 132.04,219.06 Z M69.18,219.23 L69.18,231.67 L65.79,231.67 L65.79,219.23 L69.18,219.23 Z M172.14,219.23 L174.87,224.07 L177.6,219.23 L181.24,219.23 L176.55,227.26 L176.55,231.67 L173.19,231.67 L173.19,227.26 L168.5,219.23 L172.14,219.23 Z M146.82,219.23 L146.82,231.67 L143.43,231.67 L143.43,219.23 L146.82,219.23 Z M163.21,219.23 L163.21,222.3 L159.93,222.3 L159.93,231.67 L156.53,231.67 L156.53,222.3 L153.18,222.3 L153.18,219.23 L163.21,219.23 Z M103.2,219.23 L103.2,222.28 L97.42,222.28 L97.42,224 L102.81,224 L102.81,226.78 L97.42,226.78 L97.42,228.68 L103.35,228.68 L103.35,231.67 L94.03,231.67 L94.03,219.23 L103.2,219.23 Z M115.92,219.23 C117.079826,219.203202 118.202507,219.63975 119.039564,220.443024 C119.876621,221.246299 120.359023,222.350054 120.38,223.51 C120.431631,225.009476 119.602964,226.401013 118.26,227.07 L118.26,227.07 L121.36,231.67 L117.47,231.67 L114.94,227.8 L113.65,227.8 L113.65,231.67 L110.26,231.67 L110.26,219.23 Z M115.83,222.3 L113.65,222.3 L113.65,225.07 L115.54,225.07 L115.54,225.09 C115.939286,225.123843 116.333174,224.979874 116.616524,224.696524 C116.899874,224.413174 117.043843,224.019286 117.01,223.62 C117.037588,223.286335 116.926838,222.955995 116.703703,222.706386 C116.480569,222.456778 116.164659,222.309839 115.83,222.3 L115.83,222.3 Z M48.48,174.79 L64.97,188.25 L64.97,175.78 L71.47,175.78 L71.47,201.67 L54.98,188.1 L54.98,200.67 L48.48,200.67 L48.48,174.79 Z M184.41,174.79 L200.91,188.25 L200.91,175.78 L207.41,175.78 L207.41,201.67 L190.91,188.1 L190.91,200.67 L184.41,200.67 L184.41,174.79 Z M130.71,175.43 C138.35,175.43 144.46,181.22 144.46,188.32 C144.46,195.42 138.32,201.17 130.71,201.17 C123.1,201.17 117,195.43 117,188.32 C117,181.21 123.1,175.43 130.71,175.43 Z M97.07,175.4 C99.8303774,175.34931 102.525462,176.241792 104.71,177.93 L104.71,177.93 L104.71,184.93 C102.74778,182.778595 99.9816152,181.536718 97.07,181.5 L97.07,181.5 L97.07,181.54 C93.3531236,181.54 90.34,184.553124 90.34,188.27 C90.34,191.986876 93.3531236,195 97.07,195 C99.9957899,194.93283 102.762502,193.654493 104.71,191.47 L104.71,191.47 L104.71,198.47 C102.523188,200.153929 99.8296479,201.0459 97.07,201 C89.58,201 83.51,195.62 83.51,188.22 C83.51,180.82 89.58,175.4 97.07,175.4 Z M163.27,175.78 L163.27,194.53 L172.74,194.53 L172.74,200.67 L156.49,200.67 L156.49,175.78 L163.27,175.78 Z M7.27,175.78 L7.27,194.53 L16.73,194.53 L16.73,200.67 L0.49,200.67 L0.49,175.78 L7.27,175.78 Z M35.34,175.78 L35.34,200.67 L28.55,200.67 L28.55,175.78 L35.34,175.78 Z M135.538297,183.491703 C133.59094,181.544346 130.661295,180.96384 128.118501,182.021477 C125.575707,183.079113 123.921912,185.566033 123.929933,188.32 C123.921979,190.120615 124.633723,191.849798 125.906962,193.123038 C127.180202,194.396277 128.909385,195.108021 130.71,195.100067 C133.463967,195.108088 135.950887,193.454293 137.008523,190.911499 C138.06616,188.368705 137.485654,185.43906 135.538297,183.491703 Z M180.08,62.66 L179.81,64.83 C176.47134,90.0623212 164.675871,113.417069 146.35,131.08 L146.35,131.08 L146.35,139.18 L146.04,139.41 C120.762676,157.715189 86.5873242,157.715189 61.31,139.41 L61.31,139.41 L61,139.18 L61,131.07 C42.6852323,113.406721 30.9003873,90.0555953 27.57,64.83 L27.57,64.83 L27.3,62.66 L36.11,71.48 L42.77,64.82 L43,66.26 C46.4183753,86.3445192 56.0299806,104.85796 70.49,119.21 L70.49,119.21 L70.71,119.42 L70.71,128.05 C90.4312008,141.811573 116.623701,141.883322 136.42,128.23 L136.42,128.23 L136.42,119.68 L136.62,119.48 C151.228838,105.093958 160.937788,86.4737647 164.37,66.26 L164.37,66.26 L164.6,64.82 L171.26,71.48 L180.08,62.66 Z M144.88,123.2 C133.887239,133.974617 119.092535,139.985191 103.7,139.93 C88.3107147,139.983638 73.5196902,133.9731 62.53,123.2 L62.53,123.2 L62.53,138.42 C87.1461963,156.059491 120.263804,156.059491 144.88,138.42 L144.88,138.42 Z M100.32,143.19 C100.800944,143.199335 101.270586,143.337465 101.68,143.59 L101.68,143.59 L101.68,144.71 C101.323596,144.390301 100.858645,144.218627 100.38,144.23 C99.9,144.21 99.63,144.37 99.63,144.59 C99.62,144.97 100.23,145.15 100.77,145.39 C101.72,145.81 102.05,146.22 102.05,147 L102.05,147 L102.02,147 C102.02,147.85 101.35,148.49 100.02,148.44 C99.4000124,148.430467 98.7945937,148.250571 98.27,147.92 L98.27,147.92 L98.27,146.75 C98.7313671,147.181792 99.3381188,147.424493 99.97,147.43 C100.54,147.45 100.87,147.32 100.88,146.96 C100.89,146.6 100.55,146.44 99.77,146.13 C98.99,145.82 98.42,145.48 98.45,144.56 C98.48,143.64 99.32,143.19 100.32,143.19 Z M106.59,143.3 L106.6,144.33 L105.24,144.34 L105.29,148.41 L104.17,148.43 L104.11,144.36 L102.73,144.38 L102.72,143.35 L106.59,143.3 Z M109.67,143.07 C110.120294,143.019718 110.571921,143.152355 110.923515,143.438143 C111.275109,143.723931 111.497221,144.138931 111.54,144.59 C111.609816,145.204956 111.307112,145.802501 110.77,146.11 L110.77,146.11 L112.18,147.96 L110.91,148.07 L109.7,146.47 L108.96,146.53 L109.11,148.22 L107.99,148.33 L107.54,143.25 Z M93.12,142.47 L94.24,142.63 L93.83,145.52 C93.7,146.4 94.09,146.8 94.7,146.89 C95.31,146.98 95.77,146.69 95.9,145.81 L95.9,145.81 L96.3,142.92 L97.42,143.08 L97,146.08 C96.9609202,146.660119 96.6713207,147.194513 96.2066352,147.543988 C95.7419498,147.893462 95.1481842,148.023416 94.58,147.9 L94.58,147.9 L94.56,147.89 C93.9727219,147.862097 93.4274698,147.577201 93.0691823,147.111042 C92.7108948,146.644883 92.57587,146.044688 92.7,145.47 L92.7,145.47 L93.12,142.47 Z M113.824177,142.521729 L114.658018,147.553101 L113.553089,147.736219 L112.719248,142.704847 L113.824177,142.521729 Z M117.41,141.53 L121.15,146.23 L119.98,146.49 L119.42,145.78 L117.34,146.23 L117.17,147.11 L116,147.36 L117.41,141.53 Z M87.55,141.29 L89.43,141.71 C90.14382,141.781117 90.7897433,142.163997 91.1947523,142.756081 C91.5997614,143.348166 91.7224666,144.088948 91.53,144.78 L91.53,144.78 L91.53,144.8 C91.4210205,145.506368 91.004133,146.127927 90.3919434,146.496786 C89.7797538,146.865644 89.0354219,146.943748 88.36,146.71 L88.36,146.71 L86.46,146.29 L87.55,141.29 Z M82.05,139.33 L84.35,143.33 L85.25,140.57 L86.3,140.91 L84.67,145.95 L82.37,141.96 L81.47,144.71 L80.42,144.36 L82.05,139.33 Z M88.43,142.55 L87.78,145.53 L88.5,145.69 C89.76,145.97 90.25,145.41 90.43,144.56 C90.61,143.71 90.41,142.99 89.14,142.71 L89.14,142.71 L88.43,142.55 Z M109.843838,144.078621 L109.74,144.08 L108.75,144.16 L108.88,145.54 L109.76,145.46 C109.955338,145.458846 110.140746,145.373743 110.268972,145.226378 C110.397198,145.079014 110.455857,144.883622 110.43,144.69 C110.425257,144.515479 110.348307,144.350751 110.217506,144.235116 C110.086706,144.119481 109.913786,144.063308 109.74,144.08 Z M117.89,143.76 L117.54,145.21 L118.81,144.93 L117.89,143.76 Z M125.57,139.37 C126.099172,139.158102 126.684868,139.133404 127.23,139.3 L127.23,139.3 L127.65,140.4 C127.110257,140.142868 126.488853,140.117578 125.93,140.33 C125.394102,140.533641 125.007552,141.007712 124.915962,141.573634 C124.824371,142.139557 125.041654,142.711354 125.485962,143.073635 C125.93027,143.435915 126.534102,143.533641 127.07,143.33 C127.628868,143.11456 128.076357,142.681506 128.31,142.13 L128.31,142.13 L128.72,143.23 C128.420669,143.700288 127.968741,144.053357 127.44,144.23 L127.44,144.23 L127.44,144.28 C126.551442,144.667758 125.521615,144.535235 124.760178,143.935147 C123.998741,143.33506 123.629186,142.364732 123.798521,141.410155 C123.967855,140.455578 124.648616,139.671568 125.57,139.37 Z M121.58,143.12 C121.891566,143.028291 122.219543,143.201144 122.32,143.51 C122.36644,143.66118 122.350241,143.824676 122.275037,143.963804 C122.199833,144.102931 122.07192,144.206042 121.92,144.25 C121.605845,144.342376 121.274798,144.170232 121.17,143.86 C121.079933,143.542558 121.263101,143.211961 121.58,143.12 Z M79.6530288,138.526872 L80.6896342,138.950958 L78.7585262,143.671215 L77.7219208,143.247128 L79.6530288,138.526872 Z M132.16,136.54 L133.44,139.29 C133.72791,139.801972 133.776209,140.414624 133.57208,140.965386 C133.367952,141.516149 132.932034,141.949336 132.38,142.15 L132.38,142.15 L132.265578,142.211211 C131.793959,142.433548 131.251485,142.463811 130.754776,142.290742 C130.202878,142.098443 129.762706,141.674359 129.55,141.13 L129.55,141.13 L128.27,138.38 L129.27,137.9 L130.5,140.55 C130.88,141.35 131.4,141.48 131.97,141.22 C132.54,140.96 132.77,140.47 132.39,139.66 L132.39,139.66 L131.16,137.02 L132.16,136.54 Z M72.88,135.25 L76.3,137.06 L75.82,137.96 L74.62,137.33 L72.72,140.93 L71.72,140.4 L73.62,136.8 L72.4,136.16 L72.88,135.25 Z M75.92,139.82 C76.0602075,139.524256 76.4088273,139.391869 76.71,139.52 C77.0109952,139.649787 77.1497869,139.999005 77.02,140.3 C76.8902131,140.600995 76.5409952,140.739787 76.24,140.61 C75.9365332,140.477227 75.7944823,140.126539 75.92,139.82 Z M137.81,133.07 L140.5,137.62 L139.57,138.17 L138.25,135.94 L137.78,138.31 L135.48,137.58 L136.8,139.81 L135.87,140.36 L133.18,135.81 L136.99,136.97 L137.81,133.07 Z M68.93,132.82 L71.88,134.66 L71.34,135.53 L69.34,134.28 L68.84,135.09 L70.7,136.26 L70.18,137.11 L68.31,135.94 L67.73,136.87 L69.77,138.14 L69.23,139.01 L66.23,137.14 L68.93,132.82 Z M158.34,7.10542736e-14 L158.34,49.48 L158.333712,50.5672341 C157.91631,86.4116574 136.750289,118.812488 104.01,133.57 L104.01,133.57 L103.7,133.71 L103.4,133.57 C70.329001,118.663422 49.0672749,85.755295 49.07,49.48 L49.07,49.48 L49.07,7.10542736e-14 L158.34,7.10542736e-14 Z M103.8,88.31 L77.8,114.31 C85.3243238,121.703905 94.0914232,127.715631 103.7,132.07 L103.7,132.07 L103.71,132.11 C113.362757,127.724648 122.164728,121.668215 129.71,114.22 L129.71,114.22 L103.8,88.31 Z M29.36,66.84 C32.9584575,90.4199049 44.0523373,112.214961 61,129 L61,129 L61,119.68 L68.86,119.68 C54.8436741,105.540487 45.4107031,87.5073782 41.79,67.93 L41.79,67.93 L36.12,73.6 Z M178.05,66.84 L171.29,73.6 L165.62,67.93 L165.62,67.94 C162.001666,87.5181961 152.568349,105.551966 138.55,119.69 L138.55,119.69 L146.38,119.69 L146.38,129 C163.339244,112.219527 174.443972,90.4238249 178.05,66.84 L178.05,66.84 Z M144.8,121.18 L137.93,121.18 L137.93,127.18 C140.373956,125.363446 142.671057,123.357244 144.8,121.18 L144.8,121.18 Z M69.21,121.21 L62.61,121.21 C64.6581947,123.30647 66.8647111,125.242187 69.21,127 L69.21,127 L69.21,121.21 Z M103.7,99.87 L104.3,100.34 C106.65676,102.681084 107.978387,105.868115 107.97,109.19 C107.97133,110.098389 107.8707,111.004058 107.67,111.89 C109.874144,110.139156 112.605095,109.184204 115.42,109.18 L115.42,109.18 L116.17,109.18 L116.260022,109.93 C116.267876,114.115091 114.180822,118.026441 110.7,120.35 L110.7,120.35 L110.351564,120.575158 C108.358461,121.816819 106.053787,122.47493 103.7,122.470027 L103.7,122.470027 L102.25,122.470027 C101.93,122.43 101.63,122.38 101.32,122.32 L101.32,122.32 L101.06,122.32 C95.2891024,121.101541 91.1670783,115.998082 91.1899049,110.1 L91.1899049,110.1 L91.1899049,109.36 L91.94,109.36 L92.3101473,109.364014 C95.0207217,109.433132 97.6409099,110.373147 99.78,112.05 C98.867964,107.900699 100.134679,103.572757 103.14,100.57 L103.14,100.57 L103.7,99.87 Z M114.689,110.885 L114.478835,110.902429 C109.256828,111.373709 105.07507,115.477905 104.53,120.72 L104.53,120.72 L104.53,121.1 C107.790643,120.861977 110.778506,119.192289 112.69,116.54 L112.69,116.54 L112.905763,116.224707 C113.955754,114.631367 114.57199,112.788979 114.69,110.88 L114.689,110.885 Z M92.72,110.87 C92.8916463,113.430109 93.9528576,115.84967 95.72,117.71 C95.88,117.87 96.04,118.03 96.21,118.18 C96.5028901,118.452692 96.8099849,118.709717 97.13,118.95 C97.34,119.11 97.57,119.26 97.8,119.41 C98.1030493,119.604316 98.4168878,119.781267 98.74,119.94 C98.92,120.03 99.09,120.13 99.28,120.21 C99.7479868,120.409438 100.229119,120.576498 100.72,120.71 L100.72,120.71 L101.19,120.84 C101.739714,120.964539 102.297914,121.048102 102.86,121.09 L102.86,121.09 L102.85,121.1 L103,121.1 L103,121.1 L103,121.04 L102.992329,120.865 L102.992329,120.865 L103,120.69 C102.43301,115.344579 98.0857628,111.191859 92.72,110.87 Z M148.86,112.92 C149.480595,112.150508 150.605628,112.025504 151.38,112.64 C152.14253,113.263199 152.271038,114.379883 151.67,115.16 L151.67,115.16 L151,116 L152.36,117 L151.61,117.98 L147.46,114.67 Z M58,111.7 L55.24,117.32 L54.48,116.32 L54.9,115.48 L53.55,113.72 L52.63,113.91 L51.86,112.93 L58,111.7 Z M103.75,102.13 C100.096035,106.284166 100.096035,112.505834 103.75,116.66 C105.538788,114.654279 106.521939,112.057478 106.51,109.37 L106.51,109.37 L106.46,109.37 C106.462368,106.708275 105.499532,104.135973 103.75,102.13 Z M150.151992,113.304904 C149.960788,113.3202 149.785309,113.416714 149.67,113.57 L149.67,113.57 L149.04,114.35 L150.19,115.26 L150.81,114.48 L150.81,114.49 C150.933651,114.342494 150.988997,114.149495 150.96231,113.958877 C150.935624,113.768258 150.829404,113.597879 150.67,113.49 C150.531787,113.356995 150.343196,113.289607 150.151992,113.304904 Z M56.12,113.14 L54.61,113.46 L55.43,114.53 L56.12,113.14 Z M153.030649,108.097117 C153.495113,108.012498 153.9741,108.118029 154.36,108.39 C154.899182,108.747436 155.168059,109.395903 155.04,110.03 L155.04,110.03 L157.46,110.17 L156.69,111.24 L154.61,111.12 L154.17,111.75 L155.61,112.75 L154.92,113.73 L150.6,110.65 L151.89,108.84 C152.15519,108.449409 152.566185,108.181736 153.030649,108.097117 Z M103.82,51.26 L61.82,93.26 C65.8492625,100.5815 70.8699904,107.311698 76.74,113.26 L76.74,113.26 L99.31,90.61 C93.5483311,88.8689712 89.5996851,83.5689387 89.58,77.55 L89.58,77.55 L89.58,76.8 L94.87,76.8 C93.9918057,75.3630509 93.5216408,73.7140167 93.51,72.03 L93.51,72.03 L93.51,71.56 L93.56,70.9 C93.7738277,70.8279014 93.995316,70.780919 94.22,70.76 L94.22,70.76 L94.7,70.76 C95.2667024,70.7466603 95.8332176,70.7935906 96.39,70.9 L96.39,70.9 L96.87,71 L97.11,71.1 C97.3602032,71.1608651 97.6071827,71.2342914 97.85,71.32 C99.0742564,71.7346648 100.207942,72.3795757 101.19,73.22 L101.19,73.22 L105.91,68.55 C106.705917,67.7550728 107.785103,67.3090093 108.91,67.31 L108.91,67.31 L109.151148,67.3164346 C110.192224,67.3742966 111.177567,67.8197569 111.91,68.57 C113.535397,70.2526688 113.499682,72.9312656 111.83,74.57 L111.83,74.57 L109.5,76.87 L117,76.87 L117,77.62 C116.990249,83.3122383 113.464176,88.4063398 108.14,90.42 L108.14,90.42 L130.803,113.084 L131.479002,112.392204 C136.806657,106.860599 141.411336,100.675671 145.182804,93.985486 L145.67,93.11 L103.82,51.26 Z M54.7679275,107.761226 L55.4468511,108.714097 L51.1222838,111.795366 L50.4433602,110.842495 L54.7679275,107.761226 Z M153.302549,109.173608 L153.194114,109.180413 C153.013361,109.20705 152.852165,109.30853 152.75,109.46 L152.75,109.46 L152.15,110.29 L153.33,111.13 L153.87,110.37 C153.998878,110.212614 154.054059,110.007508 154.021548,109.806702 C153.989036,109.605896 153.871956,109.42868 153.7,109.32 C153.558483,109.204441 153.374866,109.153776 153.194114,109.180413 Z M154.92,104.13 C155.537955,103.15225 156.687141,102.646951 157.825393,102.852494 C158.963644,103.058037 159.863521,103.933353 160.100478,105.065481 C160.337436,106.19761 159.864125,107.360337 158.903846,108.005107 C157.943568,108.649877 156.688199,108.647857 155.73,108 C155.105997,107.597056 154.669199,106.96115 154.517028,106.23411 C154.364857,105.50707 154.509969,104.749369 154.92,104.13 Z M51.65,103.06 L53.86,106.42 L52.97,107.01 L52.19,105.83 L48.65,108.16 L48.01,107.18 L51.55,104.85 L50.76,103.65 L51.65,103.06 Z M158.08102,104.276301 C157.332679,103.803665 156.346439,103.988479 155.82,104.7 C155.58327,105.077399 155.507145,105.53374 155.608554,105.967546 C155.709963,106.401351 155.980499,106.776656 156.36,107.01 C156.731385,107.257739 157.187717,107.34337 157.623651,107.247125 C158.059585,107.15088 158.437444,106.881077 158.67,106.5 C159.08627,105.718898 158.829362,104.748938 158.08102,104.276301 Z M48.85,97.79 L47.86,102.49 L50.47,100.97 L51.05,101.97 L46.28,104.75 L47.27,100.05 L44.67,101.57 L44.09,100.57 L48.85,97.79 Z M158.888738,98.2501887 C159.250226,98.1240445 159.647335,98.1492181 159.99,98.32 C160.416384,98.5188179 160.660705,98.9748846 160.59,99.44 C160.983402,98.9185764 161.713838,98.7917342 162.26,99.15 C162.634422,99.3514913 162.909632,99.6979485 163.021188,100.108248 C163.132744,100.518548 163.070851,100.95666 162.85,101.32 L162.85,101.32 L161.71,103.42 L157.07,100.83 L158.07,98.99 C158.232017,98.6431049 158.52725,98.3763329 158.888738,98.2501887 Z M161.65,100.12 C161.494368,100.038095 161.31189,100.023842 161.145429,100.08059 C160.978967,100.137339 160.843193,100.260086 160.77,100.42 L160.77,100.42 L160.28,101.3 L161.39,101.92 L161.89,101.04 C161.9836,100.887007 162.010905,100.702511 161.965632,100.528966 C161.920359,100.35542 161.806408,100.207773 161.65,100.12 Z M159.635,99.415 C159.358858,99.2631217 159.011878,99.3638576 158.86,99.64 L158.86,99.64 L158.48,100.32 L159.48,100.86 L159.85,100.19 L159.86,100.19 C160.011878,99.9138576 159.911142,99.5668783 159.635,99.415 Z M46.36,93.27 L48.01,96.5 L47.06,96.98 L45.94,94.8 L45.05,95.25 L46.09,97.3 L45.17,97.77 L44.12,95.73 L43.11,96.24 L44.25,98.48 L43.3,98.96 L41.63,95.69 L46.36,93.27 Z M160.047806,95.2401926 L164.776945,97.65501 L164.244867,98.6970237 L159.515728,96.2822063 L160.047806,95.2401926 Z M162.21,90.68 L163.17,91.13 L162.58,92.41 L166.42,94.2 L165.93,95.26 L162.08,93.48 L161.48,94.78 L160.51,94.33 L162.21,90.68 Z M45.214875,90.6394249 L45.6877702,91.7095978 L40.8308315,93.8558146 L40.3579363,92.7856417 L45.214875,90.6394249 Z M169.18,87.85 L168.7,89 L167.76,89 L166.91,91 L167.53,91.7 L167.04,92.95 L162.94,88.23 L169.18,87.85 Z M156.84,27.48 L50.56,27.48 L50.56,49.48 L50.5642637,50.3322496 C50.7047639,64.8159446 54.3122223,79.0599152 61.09,91.87 L61.09,91.87 L103.84,49.12 L146.35,91.68 C153.198298,78.6640344 156.777856,64.1776357 156.78,49.47 L156.78,49.47 L156.84,49.48 L156.84,27.48 Z M39.2523008,86.7557386 C39.8712484,85.9441106 40.8900335,85.5438021 41.8959387,85.7169811 C42.9018439,85.89016 43.7281059,86.6081161 44.04,87.58 C44.2717909,88.1278909 44.307118,88.7390507 44.14,89.31 L44.14,89.31 L43,89.76 C43.2366846,89.1972053 43.2366846,88.5627947 43,88 C42.8351803,87.379452 42.3291918,86.9083453 41.6984706,86.7881951 C41.0677494,86.668045 40.4239955,86.9201298 40.0425738,87.4366207 C39.6611522,87.9531116 39.6096122,88.6425386 39.91,89.21 L39.91,89.21 L39.87,89.21 C40.1066067,89.7860399 40.5639601,90.2433933 41.14,90.48 L41.14,90.48 L40,90.93 C39.5093729,90.6095458 39.1398243,90.1344119 38.95,89.58 C38.5168548,88.655759 38.6333532,87.5673666 39.2523008,86.7557386 Z M166.7,88.97 L165.15,89.05 L166.15,90.21 L166.7,88.97 Z M115.53,78.37 L91.14,78.37 C91.4896317,83.7420699 95.3163361,88.2512439 100.56,89.47 L100.56,89.47 L103.88,86.16 L106.96,89.24 C111.792939,87.7423036 115.201464,83.4190056 115.53,78.37 L115.53,78.37 Z M165.54,82.05 L166.54,82.4 L166.07,83.74 L170.06,85.16 L169.67,86.26 L165.68,84.84 L165.19,86.2 L164.19,85.84 L165.54,82.05 Z M40,80.78 C40.88,80.47 41.67,81.1 42,82.1 C42.1588843,82.5733083 42.1933215,83.0795348 42.1,83.57 L42.1,83.57 L40.99,83.93 C41.1687939,83.4666496 41.1687939,82.9533504 40.99,82.49 C40.83,82.01 40.72,81.76 40.36,81.89 C40.0553846,82 40.0085207,82.4894675 40.0013109,83.0130815 L40,83.3 L40.03,83.3 C39.93,84.37 39.77,84.85 38.93,85.13 C38.09,85.41 37.22,85 36.78,83.69 C36.570228,83.0789095 36.5287786,82.4226269 36.66,81.79 L36.66,81.79 L37.81,81.4 C37.570303,82.0106539 37.570303,82.6893461 37.81,83.3 C38,83.88 38.2,84.14 38.6,84.02 C39,83.9 39,83.48 39,82.63 C39,81.78 39.12,81.09 40,80.78 Z M166.91,77.66 L167.93,77.97 L167.2,80.31 L168.15,80.61 L168.83,78.42 L169.83,78.73 L169.15,80.92 L170.23,81.26 L170.98,78.87 L171.99,79.19 L170.9,82.7 L165.83,81.11 L166.91,77.66 Z M95,72.29 C95.0394409,73.9655888 95.6141432,75.5845674 96.64,76.91 L96.64,76.91 L97.53,76.91 L100.16,74.31 L100.18,74.29 C98.7307976,73.0540271 96.9037807,72.3486152 95,72.29 Z M109.181903,68.8087388 L109,68.81 C108.253121,68.7981824 107.532694,69.0863532 107,69.61 L107,69.61 L99.64,76.87 L107.47,76.87 L110.87,73.51 C111.962451,72.4491498 111.9893,70.7039541 110.93,69.61 C110.436667,69.0709871 109.729995,68.7780663 109,68.81 Z M120.92,32.49 L120.8,34.2 L120.8,34.2 L120.8,34.6 C120.822026,38.0037001 123.596269,40.7466212 127,40.73 L127,40.73 L138.9,40.73 C142.305379,40.7466423 145.082489,38.0053081 145.11,34.6 L145.11,34.6 L145.11,34.19 L145,32.5 L146.24,33.59 C148.297257,35.2345909 149.350306,37.8313373 149.019601,40.4443089 C148.688897,43.0572806 147.022114,45.3097982 144.62,46.39 C146.574257,47.4163023 147.807179,49.4327626 147.83,51.64 L147.83,51.64 L147.83,52.56 L147.17,52.69 C147.050148,52.698415 146.929852,52.698415 146.81,52.69 C145.229338,52.6909088 143.70841,52.0861165 142.56,51 C142.356943,53.6898473 141.018777,56.1661805 138.88,57.81 C138.952221,58.1722365 138.989061,58.5406354 138.99,58.91 C138.99,61.0214397 137.863561,62.9724905 136.035,64.0282104 C134.20644,65.0839303 131.95356,65.0839303 130.125,64.0282104 C128.296439,62.9724905 127.17,61.0214397 127.17,58.91 C127.179196,58.5505489 127.219344,58.1925584 127.29,57.84 C125.13644,56.1917307 123.787111,53.7040188 123.58,51 C122.439238,52.0779649 120.929505,52.6789962 119.36,52.68 L119.36,52.68 L118.43,52.62 L118.28,51.62 C118.305728,49.4691644 119.480836,47.496661 121.36,46.45 L121.36,46.45 L121.35,46.45 C118.902374,45.4018573 117.184164,43.1463464 116.82368,40.5082549 C116.463195,37.8701635 117.513302,35.2363733 119.59,33.57 L119.59,33.57 L120.92,32.49 Z M66.5120992,35.735861 C69.9959623,35.7691623 73.184612,37.6989888 74.83,40.77 L74.83,40.77 L74.88,40.77 C76.5448112,37.7332609 79.7245666,35.837217 83.1876493,35.8162644 C86.6507321,35.7953119 89.853197,37.6527415 91.5546312,40.6691139 C93.2560654,43.6854864 93.1892253,47.387021 91.38,50.34 L91.38,50.34 L90.13,52.41 L90,50 C89.9574696,49.4703072 89.8430878,48.9488608 89.66,48.45 C88.8517171,48.7881208 87.986073,48.968039 87.11,48.98 C86.1148172,48.977938 85.1332296,48.7487869 84.24,48.31 C85.184361,52.545826 83.1222538,56.8803752 79.24,58.82 L79.24,58.82 L79.18,60 L79.1572339,60.2133111 C78.8705692,62.4007534 77.0031594,64.0561662 74.775,64.0561662 C72.4749644,64.0561662 70.5593282,62.29223 70.37,60 L70.37,60 L70.32,60 L70.26,58.63 C66.5439222,56.6068919 64.6398763,52.3483809 65.61,48.23 C63.891074,49.1403134 61.8500923,49.213995 60.07,48.43 C59.8851336,48.9352445 59.7707256,49.4635403 59.73,50 L59.73,50 L59.59,52.42 L58.33,50.33 C56.4840617,47.3751865 56.395695,43.6490747 58.099487,40.6100775 C59.803279,37.5710802 63.028236,35.7025597 66.5120992,35.735861 Z M137.45,58.74 C134.706862,60.2338614 131.393138,60.2338614 128.65,58.74 L128.65,58.74 L128.65,58.93 C128.633359,61.3893387 130.610703,63.3979989 133.07,63.42 L133.07,63.42 L133.03,63.44 C135.489297,63.4179989 137.466641,61.4093387 137.45,58.95 C137.454939,58.8800871 137.454939,58.8099129 137.45,58.74 Z M71.86,59.34 L71.86,59.67 L71.8649908,59.8427473 C71.9544123,61.3860584 73.2342727,62.61 74.8,62.61 C76.4237172,62.61 77.74,61.2937172 77.74,59.67 L77.74,59.67 L77.86,59.44 C75.9111536,60.1175573 73.7851851,60.0821245 71.86,59.34 L71.86,59.34 Z M74.93,42.32 L74.91,42.37 C72.7890638,42.3656771 70.7532123,43.2037574 69.25,44.7 C70.4820788,45.74878 71.2093911,47.2724993 71.25,48.89 L71.25,48.89 L71.7,57.83 C73.6507041,58.6971436 75.8695338,58.7368299 77.85,57.94 L77.85,57.94 L78.33,48.94 L78.33,48.85 C78.3688972,47.1738249 79.1399755,45.5987787 80.44,44.54 C78.9535216,43.1246048 76.9825232,42.3304821 74.93,42.32 L74.93,42.32 Z M132.96,42.23 C130.157378,42.2444134 127.563451,43.7136741 126.11,46.11 C128.909673,47.0896833 130.521877,50.0209638 129.85,52.91 L129.85,52.91 L128.85,57.19 C131.380755,58.7556705 134.579245,58.7556705 137.11,57.19 L137.11,57.19 L136.11,52.92 L136.06086,52.686196 C135.530443,49.8804118 137.124374,47.0866119 139.84,46.13 C138.385735,43.728258 135.787672,42.2550123 132.98,42.24 L132.98,42.24 Z M81.43,45.63 C80.424215,46.410895 79.828109,47.6067865 79.81,48.88 L79.81,48.88 L79.37,57.06 C82.9668249,54.6966994 84.0493885,49.9113267 81.82,46.23 C81.7014745,46.0697124 81.5977169,45.8990144 81.51,45.72 L81.51,45.72 Z M68.31,45.74 C67.3680181,47.0859929 66.858717,48.6871516 66.85,50.33 L66.85,50.33 L66.839995,50.33 C66.837124,52.8993476 68.0684914,55.3137206 70.15,56.82 L70.15,56.82 L69.75,48.89 L69.7414793,48.6494216 C69.6700013,47.5313259 69.1570694,46.4832673 68.31,45.74 Z M125.54,47.44 C124.324982,50.5171438 125.164143,54.0256395 127.64,56.22 L127.64,56.22 L128.48,52.71 C128.559343,52.3622369 128.599593,52.0066992 128.6,51.65 C128.611511,49.7281404 127.371581,48.022225 125.54,47.44 Z M140.5,47.48 C138.691734,48.0768496 137.478123,49.7759053 137.5,51.68 C137.49926,52.0334629 137.539529,52.3858184 137.62,52.73 L137.62,52.73 L138.462,56.199 L138.631705,56.0422727 C140.844863,53.898555 141.613456,50.6615937 140.600221,47.7517921 Z M142.1,47.24 C142.367407,49.3925771 144.108163,51.0623668 146.27,51.24 C146.002593,49.0874229 144.261837,47.4176332 142.1,47.24 Z M123.96,47.18 C121.798163,47.3576332 120.057407,49.0274229 119.79,51.18 C121.951837,51.0023668 123.692593,49.3325771 123.96,47.18 Z M83.16,37.35 L83.2,37.41 C80.52575,37.4216234 78.034169,38.7687282 76.56,41 C78.551894,41.3209427 80.39032,42.2664189 81.81,43.7 C82.6293492,43.3661627 83.5052563,43.1930182 84.39,43.19 C87.2833477,43.184927 89.8937227,44.9264934 91,47.6 C91.1776021,46.8875527 91.2550138,46.1538242 91.23,45.42 C91.2244902,40.9653463 87.6146537,37.3555098 83.16,37.35 L83.16,37.35 Z M66.5,37.36 C62.0453463,37.3655098 58.4355098,40.9753463 58.43,45.43 C58.4335682,46.1634194 58.5344488,46.8931221 58.73,47.6 C59.8442143,44.9285095 62.4554649,43.1889906 65.35,43.19 C66.2603331,43.1931674 67.1610142,43.3767024 68,43.73 C69.3992335,42.296012 71.2156176,41.340573 73.19,41 C71.6984736,38.7789213 69.1953972,37.450452 66.52,37.46 L66.52,37.46 Z M84.32,44.68 C83.7876611,44.6907485 83.2593489,44.7748746 82.75,44.93 L82.75,44.93 L83,45.35 C84.3412362,47.269115 86.8346088,48.0005043 89,47.11 C87.9368428,45.577039 86.1855083,44.6676922 84.32,44.68 Z M65.39,44.68 C63.5413018,44.6819951 61.809659,45.5851364 60.75,47.1 C63.0661225,48.0277663 65.7117304,47.1060707 66.95,44.94 C66.4455094,44.7775252 65.9199154,44.6899262 65.39,44.68 Z M146.36,35.92 C145.695981,39.5876996 142.497307,42.2511543 138.77,42.24 L138.77,42.24 L138.03,42.25 C139.358044,43.0967911 140.45708,44.2576475 141.23,45.6300751 L141.23,45.6300751 L141.32,45.6300751 C144.723731,45.6466212 147.497974,42.9037001 147.52,39.5 C147.520294,38.2142364 147.114301,36.9612577 146.36,35.92 Z M119.43,35.88 C118.672755,36.9203607 118.263296,38.1732371 118.26,39.46 C118.287511,42.8653081 121.064621,45.6066423 124.47,45.5900754 L124.47,45.5900754 L124.81,45.5900754 C125.579761,44.2212375 126.675508,43.0636617 128,42.22 L128,42.22 L127,42.22 C123.276462,42.226303 120.083357,39.5639773 119.42,35.9 L119.42,35.9 Z M156.84,1.49 L50.57,1.49 L50.57,26 L73.67,26 L73.67,16 L67.34,8.1 L69.63,8.1 L74.56,14.24 L79.49,8.1 L81.79,8.1 L75.46,16 L75.46,26 L102.82,26 L102.82,15.18 L97.33,15.18 L97.33,13.39 L102.82,13.39 L102.82,8.11 L104.61,8.11 L104.61,13.39 L110.1,13.39 L110.1,15.18 L104.61,15.18 L104.61,26 L132.05,26 L132.05,16 L125.71,8.1 L128,8.1 L132.94,14.26 L137.87,8.12 L140.17,8.12 L133.84,16 L133.84,26 L156.84,26 L156.84,1.49 Z"
                  id="Lincoln-Portrait"/>
        </g>
    </g>
</svg>
