<?xml version="1.0" encoding="UTF-8"?>
<svg width="20px" height="20px" viewBox="0 0 20 20" version="1.1" xmlns="http://www.w3.org/2000/svg">
    <title>Ext Link</title>
    <g stroke="none" stroke-width="1" fill="none" fill-rule="evenodd">
        <g id="Icons-/-Ext-link" fill=" #FEDA2A">
            <path d="M10.8069225,2.89855072 C11.2927408,2.89855072 11.6865743,3.29238423 11.6865743,3.77820247 C11.6865743,4.21094864 11.3722305,4.57735534 10.9219527,4.64967154 L10.9219527,4.64967154 L10.8069225,4.65785422 L1.75845411,4.65700483 L1.75845411,18.2405797 L15.342029,18.2405797 L15.3421458,9.19307745 C15.3421458,8.79639346 15.6062819,8.45545306 15.9971332,8.34568252 L15.9971332,8.34568252 L16.1067674,8.32160838 L16.2217975,8.3134257 C16.6545437,8.3134257 17.0209504,8.62776948 17.0932666,9.07804735 L17.0932666,9.07804735 L17.1014493,9.19307745 L17.1014493,20 L-1.40687462e-12,20 L-1.40687462e-12,2.89855072 Z M19.0569626,-8.34887715e-14 C19.5418866,-8.34887715e-14 19.9464378,0.367337208 19.996446,0.863598128 L19.996446,0.863598128 L20,0.942453745 L20,7.67375527 C20,8.19433123 19.5777147,8.61620902 19.0569626,8.61620902 C18.5720386,8.61620902 18.1674873,8.24887181 18.1174792,7.75261089 L18.1174792,7.75261089 L18.1139252,7.67382478 L18.1120773,3.36328502 L7.56775456,13.8993957 C7.19162616,14.2751611 6.59861062,14.3020015 6.19149835,13.9799169 L6.19149835,13.9799169 L6.10103276,13.8993957 C5.73281085,13.5315291 5.69571034,12.9495378 6.02294411,12.5212748 L6.02294411,12.5212748 L6.10103195,12.4331671 L16.6589372,1.88405797 L12.3452898,1.88490749 C11.8976677,1.88490749 11.5185288,1.57191011 11.4235156,1.13343401 L11.4235156,1.13343401 L11.4058064,1.02130936 L11.4022524,0.942453745 C11.4022524,0.457677632 11.7699789,0.0534788777 12.2664074,0.00354935481 L12.2664074,0.00354935481 L12.3452898,-8.34887715e-14 Z"
                  id="Ext-Link"/>
        </g>
    </g>
</svg>
