<?xml version="1.0" encoding="UTF-8"?>
<svg width="480px" height="71px" viewBox="0 0 480 71" version="1.1" xmlns="http://www.w3.org/2000/svg">
    <title>Lincoln Horizontal</title>
    <g id="Symbols" stroke="none" stroke-width="1" fill="none" fill-rule="evenodd">
        <g id="Logos-/-Lincoln-Horizontal-Long" fill="#FFFFFF">
            <path d="M70.13,28.74 L70,29.74 C68.4630868,41.3195027 63.0405118,52.0342007 54.62,60.13 L54.62,60.13 L54.62,63.84 L54.48,63.95 C42.8846567,72.3382055 27.2153433,72.3382055 15.62,63.95 L15.62,63.95 L15.47,63.84 L15.47,60.12 C7.06685353,52.0204839 1.65899735,41.3105315 0.13,29.74 L0.13,29.74 L2.84217094e-13,28.74 L4.1,32.79 L7.1,29.73 L7.21,30.39 C8.79069364,39.5867351 13.2025039,48.0607669 19.83,54.63 L19.83,54.63 L19.93,54.73 L19.93,58.73 C28.9743514,65.0439764 40.9881023,65.0798502 50.07,58.82 L50.07,58.82 L50.07,54.9 L50.16,54.81 C56.9091169,48.22572 61.4093044,39.6802628 63.02,30.39 L63.02,30.39 L63.13,29.73 L66.13,32.79 L70.13,28.74 Z M53.94,56.51 C48.8960447,61.4498835 42.1099785,64.2052635 35.05,64.18 L35.05,64.18 C27.9896039,64.2074233 21.202749,61.4517231 16.16,56.51 L16.16,56.51 L16.16,63.51 C27.4531901,71.6027466 42.6468099,71.6027466 53.94,63.51 L53.94,63.51 Z M33.5,65.67 C33.7185827,65.6764794 33.9319306,65.7384192 34.12,65.85 L34.12,65.85 L34.12,66.37 C33.9551508,66.2232069 33.740667,66.1445628 33.52,66.15 C33.3,66.14 33.19,66.13 33.18,66.31 C33.17,66.49 33.46,66.57 33.7,66.68 C34.14,66.87 34.29,67.06 34.29,67.42 C34.27,67.81 33.97,68.08 33.36,68.08 C33.0766331,68.0732073 32.8003114,67.9903108 32.56,67.84 L32.56,67.84 L32.56,67.3 C32.7699869,67.5005339 33.0496459,67.6116804 33.34,67.61 C33.6,67.62 33.74,67.56 33.75,67.4 C33.76,67.24 33.59,67.16 33.24,67.02 C32.89,66.88 32.62,66.72 32.64,66.3 C32.66,65.88 33.04,65.67 33.5,65.67 Z M36.37,65.73 L36.38,66.2 L35.75,66.21 L35.78,68.08 L35.26,68.08 L35.24,66.22 L34.6,66.22 L34.6,65.76 L36.37,65.73 Z M37.79,65.6 C37.9970893,65.5776588 38.2045118,65.6390738 38.3660543,65.7705618 C38.5275968,65.9020499 38.6298385,66.0926872 38.65,66.3 C38.6768523,66.5835867 38.5362965,66.8568898 38.29,67 L38.29,67 L38.94,67.9 L38.36,67.96 L37.8,67.22 L37.46,67.22 L37.53,68 L37,68 L36.79,65.68 Z M30.22,65.34 L30.74,65.41 L30.55,66.74 C30.49,67.14 30.65,67.33 30.94,67.37 C31.23,67.41 31.44,67.28 31.5,66.87 L31.5,66.87 L31.68,65.55 L32.19,65.62 L32,67 C31.9842512,67.2732746 31.8476334,67.5253444 31.6272671,67.6877196 C31.4069008,67.8500948 31.1256744,67.9059101 30.86,67.84 L30.86,67.84 L30.85,67.84 C30.5815458,67.8254237 30.3328999,67.6941492 30.1694445,67.4806957 C30.005989,67.2672421 29.9440813,66.99297 30,66.73 L30,66.73 L30.22,65.34 Z M39.69,65.37 L40.07,67.68 L39.56,67.76 L39.18,65.46 L39.69,65.37 Z M41.37,64.92 L43.09,67.08 L42.55,67.19 L42.3,66.87 L41.3,67.07 L41.24,67.48 L40.71,67.59 L41.37,64.92 Z M27.61,64.81 L28.47,65 C28.8036551,65.0241978 29.1090259,65.1962759 29.3025519,65.4691476 C29.4960779,65.7420192 29.557496,66.0871135 29.47,66.41 L29.47,66.41 L29.44,66.41 C29.3872928,66.733555 29.1942598,67.0172645 28.9126473,67.1850747 C28.6310347,67.352885 28.2896471,67.3876315 27.98,67.28 L27.98,67.28 L27.11,67.1 L27.61,64.81 Z M25.12,63.91 L26.17,65.74 L26.58,64.48 L27.07,64.64 L26.32,66.95 L25.26,65.12 L24.85,66.38 L24.37,66.22 L25.12,63.91 Z M28.01,65.41 L27.71,66.78 L28.04,66.85 C28.62,66.97 28.85,66.72 28.93,66.33 C29.01,65.94 28.92,65.61 28.34,65.48 L28.34,65.48 L28.01,65.41 Z M37.879146,66.0999066 L37.82,66.1 L37.36,66.1 L37.42,66.73 L37.83,66.73 C37.9190374,66.7312469 38.0040275,66.6928757 38.061978,66.6252668 C38.1199284,66.557658 38.1448497,66.4677992 38.13,66.38 C38.1304593,66.3002369 38.0968782,66.224064 38.0376848,66.170599 C37.9784914,66.117134 37.8993052,66.0914525 37.82,66.1 Z M41.55,65.94 L41.4,66.61 L41.98,66.48 L41.55,65.94 Z M43.25,65.65 C43.3428891,65.6232051 43.443017,65.6480013 43.5126666,65.7150481 C43.5823163,65.7820949 43.6109061,65.8812063 43.5876666,65.9750481 C43.5644272,66.0688898 43.4928891,66.1432051 43.4,66.17 C43.3071109,66.1967949 43.206983,66.1719987 43.1373334,66.1049519 C43.0676837,66.0379051 43.0390939,65.9387937 43.0623334,65.8449519 C43.0855728,65.7511102 43.1571109,65.6767949 43.25,65.65 Z M45.08,63.83 C45.3262751,63.7454284 45.5937249,63.7454284 45.84,63.83 L45.84,63.83 L46.03,64.34 C45.7778274,64.2315748 45.4921726,64.2315748 45.24,64.34 C44.9808152,64.4254359 44.7896903,64.6465894 44.742713,64.9154187 C44.6957356,65.184248 44.8005316,65.4571131 45.0153814,65.6253856 C45.2302312,65.7936581 45.5202576,65.8300217 45.77,65.72 C46.0238235,65.6206494 46.2260925,65.4219924 46.33,65.17 L46.33,65.17 L46.52,65.68 C46.3847066,65.9033688 46.1762232,66.0729824 45.93,66.16 L45.93,66.16 L45.93,66.08 C45.5280762,66.2318379 45.0756788,66.1577181 44.7432214,65.8855608 C44.410764,65.6134035 44.2487549,65.184556 44.3182214,64.7605608 C44.3876878,64.3365656 44.6780762,63.9818379 45.08,63.83 Z M24.01,63.55 L24.49,63.74 L23.61,65.91 L23.13,65.71 L24.01,63.55 Z M48.1,62.63 L48.69,63.89 C48.8202828,64.1253491 48.841034,64.4059292 48.7467915,64.6578838 C48.6525489,64.9098385 48.4527546,65.1079244 48.2,65.2 C47.9679595,65.3347461 47.688279,65.3602159 47.4357155,65.2696016 C47.183152,65.1789872 46.9834541,64.9815266 46.89,64.73 L46.89,64.73 L46.3,63.47 L46.76,63.25 L47.33,64.47 C47.5,64.84 47.76,64.9 48.01,64.78 C48.26,64.66 48.37,64.43 48.2,64.06 L48.2,64.06 L47.63,62.85 L48.1,62.63 Z M20.91,62.04 L22.48,62.87 L22.26,63.28 L21.71,62.99 L20.84,64.64 L20.38,64.4 L21.25,62.75 L20.69,62.45 L20.91,62.04 Z M22.4605257,63.994209 C22.5282826,63.9678592 22.6038025,63.9699469 22.67,64 C22.8052166,64.0634512 22.8668227,64.2218669 22.81,64.36 C22.7465488,64.4952166 22.5881331,64.5568227 22.45,64.5 C22.3831196,64.4714988 22.3305589,64.4172311 22.304209,64.3494743 C22.2778592,64.2817174 22.2799469,64.2061975 22.31,64.14 C22.3385012,64.0731196 22.3927689,64.0205589 22.4605257,63.994209 Z M50.69,61.04 L51.93,63.13 L51.5,63.38 L50.89,62.36 L50.68,63.44 L49.62,63.11 L50.23,64.13 L49.8,64.38 L48.57,62.3 L50.32,62.83 L50.69,61.04 Z M19.1,60.92 L20.45,61.77 L20.2,62.17 L19.29,61.59 L19.06,61.97 L19.91,62.5 L19.67,62.89 L18.81,62.36 L18.55,62.78 L19.48,63.37 L19.23,63.76 L17.86,62.91 L19.1,60.92 Z M60.1100004,-4.61852778e-14 L60.1100004,22.7 C60.1121382,39.3388913 50.3595413,54.4335005 35.19,61.27 L35.19,61.27 L35.05,61.33 L34.91,61.27 C19.7443659,54.4305297 9.99608915,39.3365501 9.99999882,22.7 L9.99999882,22.7 L9.99999882,-4.61852778e-14 L60.1100004,-4.61852778e-14 Z M35.16,40.49 L23.16,52.43 C26.6145203,55.8231605 30.6392349,58.5819009 35.05,60.58 L35.05,60.58 L35.06,60.58 C39.4958679,58.5739235 43.5389984,55.793848 47,52.37 L47,52.37 L35.16,40.49 Z M0.94,30.66 C2.60140173,41.4724615 7.69542696,51.4641834 15.47,59.16 L15.47,59.16 L15.47,54.9 L19.07,54.9 C12.6391277,48.4140431 8.31111645,40.1413389 6.65,31.16 L6.65,31.16 L4.05,33.76 Z M69.17,30.62 L66.07,33.72 L63.47,31.12 L63.45,31.16 C61.7768393,40.1406559 57.4385596,48.4095217 51,54.89 L51,54.89 L54.64,54.89 L54.64,59.12 C62.4221253,51.4297036 67.517502,41.4353309 69.17,30.62 L69.17,30.62 Z M53.9,55.58 L50.75,55.58 L50.75,58.33 C51.8713495,57.4984226 52.9246804,56.578848 53.9,55.58 L53.9,55.58 Z M19.22,55.58 L16.22,55.58 C17.152693,56.5397927 18.1554571,57.4289102 19.22,58.24 L19.22,58.24 L19.22,55.58 Z M35,45.89 L35.3,46.1 C36.3874087,47.1711307 36.9997889,48.6336388 37,50.16 C36.9891772,50.5441345 36.9389132,50.9261405 36.85,51.3 C37.8586128,50.4962988 39.1103355,50.0590773 40.4,50.06 L40.4,50.06 L40.7400057,50.06 L40.7400057,50.4 C40.7426909,52.319474 39.7857576,54.1132548 38.19,55.18 L38.19,55.18 L37.9512873,55.3342039 C37.0636927,55.877021 36.0439095,56.1702448 35,56.18 L35,56.18 L34.38,56.18 L33.95,56.11 L33.84,56.11 C31.1909215,55.5505002 29.298977,53.2074962 29.3099521,50.5 L29.3099521,50.5 L29.3099521,50.16 L29.65,50.16 C30.9539037,50.1551521 32.2216655,50.588304 33.25,51.39 C32.8294466,49.4886604 33.4104179,47.5043037 34.79,46.13 L34.79,46.13 L35,45.89 Z M127.47,44.6 L130.5,51.3 L132.71,44.78 L134.7,44.78 L130.85,56.14 L127.47,48.76 L124.03,56.13 L120.21,44.78 L122.2,44.78 L124.38,51.32 L127.47,44.6 Z M208.81,44.6 L211.85,51.3 L214.06,44.78 L216.04,44.78 L212.19,56.14 L208.81,48.76 L205.38,56.13 L201.56,44.78 L203.55,44.78 L205.72,51.32 L208.81,44.6 Z M233.95,44.38 L241.39,51.68 L241.39,44.78 L243.34,44.78 L243.34,56.11 L235.91,48.84 L235.91,55.7 L233.95,55.7 L233.95,44.38 Z M303.92,44.6 C305.444344,44.5649063 306.918163,45.147402 308.00663,46.2151547 C309.095098,47.2829075 309.705801,48.7452627 309.700041,50.27 C309.693808,53.3788482 307.181306,55.9007877 304.072503,55.9187295 C300.9637,55.9364808 298.422409,53.4435534 298.380525,50.3349812 C298.338641,47.226409 300.811845,44.6659183 303.92,44.6 Z M340.45,44.6 C341.974344,44.5649063 343.448163,45.147402 344.53663,46.2151547 C345.625098,47.2829075 346.235801,48.7452627 346.230041,50.27 C346.223808,53.3788482 343.711306,55.9007877 340.602503,55.9187295 C337.4937,55.9364808 334.952409,53.4435534 334.910525,50.3349812 C334.868641,47.226409 337.341845,44.6659183 340.45,44.6 Z M395.34,44.79 L395.34,55.71 L393.38,55.71 L393.38,44.79 L395.34,44.79 Z M325.32,44.25 L330.7,55.7 L328.62,55.7 L327.62,53.59 L322.92,53.59 L321.92,55.7 L319.85,55.7 L325.32,44.25 Z M223.6,44.25 L229,55.7 L226.96,55.7 L225.96,53.59 L221.26,53.59 L220.26,55.7 L218.19,55.7 L223.6,44.25 Z M356.05,44.78 C356.980637,44.7612192 357.8798,45.117124 358.545473,45.7677533 C359.211145,46.4183826 359.587507,47.3091765 359.59,48.24 L359.59,48.24 L359.56,48.24 C359.594037,49.5886759 358.801257,50.8214489 357.56,51.35 L357.56,51.35 L360.21,55.7 L358,55.7 L355.75,51.82 L353.81,51.82 L353.81,55.7 L351.81,55.7 L351.81,44.78 Z M381.35,44.78 L381.35,49.75 L385.61,44.78 L387.98,44.78 L383.31,50.11 L388.15,55.7 L385.74,55.7 L381.35,50.59 L381.35,55.7 L379.39,55.7 L379.39,44.78 L381.35,44.78 Z M141.33,44.78 L141.33,49.05 L146.57,49.05 L146.57,44.78 L148.52,44.78 L148.52,55.7 L146.57,55.7 L146.57,50.81 L141.33,50.81 L141.33,55.7 L139.37,55.7 L139.37,44.78 L141.33,44.78 Z M253.78,44.25 L259.17,55.7 L257.08,55.7 L256.08,53.59 L251.38,53.59 L250.38,55.7 L248.32,55.7 L253.78,44.25 Z M266.03,44.78 L266.03,49.75 L270.29,44.78 L272.66,44.78 L267.99,50.11 L272.83,55.7 L270.42,55.7 L266.03,50.59 L266.03,55.7 L264.07,55.7 L264.07,44.78 L266.03,44.78 Z M369.39,44.25 L374.78,55.7 L372.7,55.7 L371.7,53.59 L367,53.59 L366,55.7 L364,55.7 L369.39,44.25 Z M173.46,44.78 C174.390637,44.7612192 175.2898,45.117124 175.955473,45.7677533 C176.621145,46.4183826 176.997507,47.3091765 177,48.24 L177,48.24 L177.06,48.24 C177.094037,49.5886759 176.301257,50.8214489 175.06,51.35 L175.06,51.35 L177.71,55.7 L175.5,55.7 L173.17,51.82 L171.22,51.82 L171.22,55.7 L169.22,55.7 L169.22,44.78 Z M158.9,44.25 L164.35,55.7 L162.27,55.7 L161.27,53.59 L156.57,53.59 L155.57,55.7 L153.5,55.7 L158.9,44.25 Z M190.25,44.78 L190.25,46.55 L185.25,46.55 L185.25,49.16 L189.93,49.16 L189.93,50.92 L185.25,50.92 L185.25,53.93 L190.35,53.93 L190.35,55.7 L183.29,55.7 L183.29,44.78 L190.25,44.78 Z M95.41,44.78 L95.41,46.55 L92.45,46.55 L92.45,55.7 L90.5,55.7 L90.5,46.55 L87.54,46.55 L87.54,44.78 L95.41,44.78 Z M107.96,44.78 L107.96,46.55 L102.97,46.55 L102.97,49.16 L107.65,49.16 L107.65,50.92 L102.97,50.92 L102.97,53.93 L108.07,53.93 L108.07,55.7 L101.01,55.7 L101.01,44.78 L107.96,44.78 Z M282,44.25 L287.42,55.7 L285.34,55.7 L284.34,53.59 L279.64,53.59 L278.64,55.7 L276.57,55.7 L282,44.25 Z M30,50.85 C30.0817037,52.0299956 30.5734076,53.1442886 31.39,54 L31.39,54 L31.58,54.21 C31.7133357,54.3344392 31.8535566,54.4512899 32,54.56 L32,54.56 L32.34,54.75 L32.77,55 L33.02,55.14 C33.233946,55.2330451 33.4545637,55.309927 33.68,55.37 L33.68,55.37 L33.9,55.43 C34.1498588,55.487603 34.4040625,55.5243956 34.66,55.54 L34.66,55.54 L34.63,55.52 L34.7,55.52 L34.6958866,55.44 L34.6958866,55.44 L34.7,55.36 C34.4618095,52.9023964 32.4653361,50.9866315 30,50.85 Z M40.06,50.841 L39.8575626,50.8577041 C37.4994839,51.0979198 35.6203644,52.9703183 35.39,55.35 L35.39,55.35 L35.39,55.52 C36.8850553,55.4128894 38.2552763,54.6471776 39.13,53.43 L39.13,53.43 L39.2870916,53.1981578 C39.7379912,52.4908254 40.0045246,51.6799942 40.06,50.84 L40.06,50.841 Z M341.88381,46.6644285 C340.424386,46.0622166 338.745725,46.4018225 337.635152,47.5239646 C336.524578,48.6461067 336.202385,50.3281964 336.819688,51.7813014 C337.436991,53.2344063 338.871341,54.170288 340.45,54.15 C341.479604,54.163877 342.470537,53.7582266 343.194861,53.0263574 C343.919185,52.2944883 344.314545,51.2994054 344.29,50.27 C344.293928,48.6912153 343.343233,47.2666404 341.88381,46.6644285 Z M305.35381,46.6644285 C303.894386,46.0622166 302.215725,46.4018225 301.105152,47.5239646 C299.994578,48.6461067 299.672385,50.3281964 300.289688,51.7813014 C300.906991,53.2344063 302.341341,54.170288 303.92,54.15 C304.949604,54.163877 305.940537,53.7582266 306.664861,53.0263574 C307.389185,52.2944883 307.784545,51.2994054 307.76,50.27 C307.763928,48.6912153 306.813233,47.2666404 305.35381,46.6644285 Z M55.77,51.78 C56.0521399,51.4273969 56.5662668,51.3692782 56.92,51.65 C57.2770188,51.9327694 57.3394926,52.4504102 57.06,52.81 L57.06,52.81 L56.75,53.19 L57.37,53.68 L57,54.1 L55.13,52.58 Z M14.09,51.24 L12.82,53.81 L12.47,53.36 L12.66,52.97 L12.04,52.16 L11.62,52.25 L11.27,51.8 L14.09,51.24 Z M35,46.84 C33.3316358,48.7503529 33.3316358,51.5996471 35,53.51 C35.8344913,52.5864012 36.2944724,51.3847451 36.29,50.14 L36.29,50.14 L36.24,50.16 C36.2458895,48.9390538 35.8048283,47.758148 35,46.84 Z M56.36,52.0078461 C56.2723383,52.0078461 56.1887747,52.0449607 56.13,52.11 L56.13,52.11 L55.85,52.47 L56.37,52.88 L56.66,52.53 L56.66,52.57 C56.7141865,52.500607 56.7373883,52.411954 56.7241429,52.324913 C56.7108976,52.2378721 56.6623753,52.1601336 56.59,52.11 L56.5415944,52.0666 C56.4891874,52.028723 56.4257463,52.0078461 56.36,52.0078461 Z M13.22,51.9 L12.53,52 L12.9,52.53 L13.22,51.9 Z M57.7213012,49.5198588 C57.9334358,49.4804355 58.1525323,49.5272789 58.33,49.65 C58.5772345,49.817562 58.6995045,50.1173208 58.64,50.41 L58.64,50.41 L59.75,50.47 L59.4,50.96 L58.4,50.96 L58.2,51.25 L58.86,51.72 L58.6,52.1 L56.6,50.69 L57.2,49.86 C57.3215282,49.6817133 57.5091666,49.559282 57.7213012,49.5198588 Z M35.11,23.5 L15.84,42.82 C17.6814641,46.1835411 19.9837055,49.2733914 22.68,52 L22.68,52 L33.03,41.6 C30.3831618,40.8019453 28.5713519,38.3645329 28.57,35.6 L28.57,35.6 L28.57,35.26 L31,35.26 C30.6027155,34.5989366 30.3951283,33.8412432 30.4,33.07 L30.4,33.07 L30.4,32.55 C30.4970586,32.5173874 30.5978642,32.4972263 30.7,32.49 L30.7,32.49 L30.92,32.49 C31.1780887,32.4934238 31.4355249,32.5168271 31.69,32.56 L31.69,32.56 L31.91,32.61 L32.03,32.61 L32.37,32.71 C32.934203,32.8969814 33.4546729,33.1963366 33.9,33.59 L33.9,33.59 L36.03,31.49 C36.400755,31.1326386 36.8950609,30.9320507 37.41,30.93 L37.41,30.93 L37.5806828,30.9368364 C38.0329603,30.9752625 38.4589479,31.1738908 38.78,31.5 C39.5165084,32.2725966 39.5165084,33.4874034 38.78,34.26 L38.78,34.26 L37.71,35.26 L41.15,35.26 L41.15,35.6 C41.1434226,38.2178905 39.5135624,40.5570786 37.06,41.47 L37.06,41.47 L47.45,51.87 L47.48,51.89 C50.1682771,49.1514721 52.4665412,46.0557137 54.31,42.69 L54.31,42.69 L35.11,23.5 Z M282,48.34 L280.35,51.9 L283.61,51.9 L282,48.34 Z M369.39,48.34 L367.77,51.9 L371,51.9 L369.39,48.34 Z M325.24,48.34 L323.63,51.9 L326.85,51.9 L325.24,48.34 Z M158.89,48.34 L157.27,51.9 L160.5,51.9 L158.89,48.34 Z M253.7,48.34 L252.09,51.9 L255.32,51.9 L253.7,48.34 Z M223.61,48.34 L222,51.9 L225.22,51.9 L223.61,48.34 Z M12.5972198,49.4322805 L12.9105692,49.872067 L10.9315299,51.2821392 L10.6181805,50.8423527 L12.5972198,49.4322805 Z M57.98,50.14 C57.838507,50.0406341 57.6436715,50.0716306 57.54,50.21 L57.54,50.21 L57.27,50.59 L57.81,50.97 L58.06,50.63 C58.1174353,50.555485 58.1414273,50.4605021 58.1262678,50.3676502 C58.1111083,50.2747982 58.0581526,50.1923782 57.98,50.14 Z M173.47,46.55 L171.23,46.55 L171.23,50.06 L173.32,50.06 C173.801322,50.085802 174.271181,49.907266 174.613914,49.5683404 C174.956648,49.2294148 175.140423,48.7615806 175.12,48.28 C175.144859,47.8279291 174.981725,47.3856929 174.669244,47.0580619 C174.356764,46.7304309 173.922741,46.5465563 173.47,46.55 L173.47,46.55 Z M356,46.55 L353.74,46.55 L353.74,50.06 L355.84,50.06 C356.321322,50.085802 356.791181,49.907266 357.133914,49.5683404 C357.476648,49.2294148 357.660423,48.7615806 357.64,48.28 C357.667741,47.8289037 357.506947,47.3865381 357.196017,47.0585445 C356.885087,46.7305509 356.451934,46.5463751 356,46.55 L356,46.55 Z M58.54,47.77 C58.8227032,47.3220941 59.3488797,47.0904864 59.8701275,47.1845164 C60.3913752,47.2785464 60.8034575,47.6794104 60.9118351,48.197865 C61.0202126,48.7163196 60.8032124,49.2486867 60.363278,49.5436418 C59.9233435,49.8385969 59.3484507,49.8371563 58.91,49.54 C58.3197296,49.1529409 58.1542027,48.3610959 58.54,47.77 Z M11.17,47.27 L12.19,48.81 L11.78,49.09 L11.42,48.54 L9.8,49.61 L9.5,49.16 L11.13,48.09 L10.76,47.54 L11.17,47.27 Z M59.7887876,47.6311293 C59.4753078,47.5822194 59.1634382,47.7280629 59,48 C58.8898183,48.1729789 58.8542239,48.3831459 58.9013024,48.5827589 C58.948381,48.7823718 59.0741357,48.9544847 59.25,49.06 C59.5177269,49.2302472 59.8618984,49.221364 60.1204865,49.0375325 C60.3790746,48.8537009 60.5005466,48.5315558 60.4277163,48.2227556 C60.3548861,47.9139554 60.1022675,47.6800391 59.7887876,47.6311293 Z M9.89,44.85 L9.43,47.01 L10.63,46.32 L10.89,46.77 L8.71,48.05 L9.16,45.89 L7.97,46.59 L7.7,46.13 L9.89,44.85 Z M60.3599092,45.0681263 C60.5273199,45.0098147 60.7111505,45.0213016 60.87,45.1 C61.0611738,45.1933578 61.1702612,45.3994119 61.14,45.61 C61.3246841,45.3744936 61.6582348,45.3181798 61.91,45.48 C62.0809938,45.5743654 62.2063164,45.7341469 62.2572255,45.9226991 C62.3081346,46.1112514 62.2802619,46.3123956 62.18,46.48 L62.18,46.48 L61.64,47.44 L59.51,46.25 L59.98,45.41 C60.0555837,45.2496451 60.1924984,45.1264379 60.3599092,45.0681263 Z M61.61,45.91 C61.5388487,45.872719 61.4554215,45.8666195 61.3796044,45.8931555 C61.3037874,45.9196915 61.2423729,45.9764855 61.21,46.05 L61.21,46.05 L60.98,46.46 L61.49,46.74 L61.72,46.33 C61.7630728,46.2601963 61.7756862,46.1758006 61.7549049,46.0964535 C61.7341235,46.0171064 61.6817598,45.9497285 61.61,45.91 Z M60.695,45.595 C60.5734974,45.5259644 60.4190356,45.5684974 60.35,45.69 L60.35,45.69 L60.17,46 L60.62,46.31 L60.79,46 L60.79,45.94 C60.8590356,45.8184974 60.8165026,45.6640356 60.695,45.595 Z M8.74,42.78 L9.5,44.26 L9.06,44.49 L8.55,43.48 L8.14,43.69 L8.62,44.63 L8.2,44.84 L7.72,43.91 L7.25,44.15 L7.78,45.17 L7.34,45.39 L6.58,43.89 L8.74,42.78 Z M60.8941906,43.6902204 L63.0670853,44.8002333 L62.8214267,45.2811198 L60.648532,44.171107 L60.8941906,43.6902204 Z M61.88,41.59 L62.33,41.8 L62.05,42.39 L63.82,43.21 L63.59,43.7 L61.83,42.88 L61.55,43.48 L61.1,43.27 L61.88,41.59 Z M8.20752191,41.5789691 L8.42578125,42.072895 L6.2031144,43.0550621 L5.98485506,42.5611361 L8.20752191,41.5789691 Z M226.13,41.44 L226.13,42.94 L221.04,42.94 L221.04,41.44 L226.13,41.44 Z M65.04,40.27 L64.82,40.8 L64.39,40.8 L64,41.74 L64.32,42.06 L64.06,42.61 L62.18,40.44 L65.04,40.27 Z M59.4200002,12.59 L10.67,12.59 L10.67,22.7 C10.6753938,29.4763331 12.3332922,36.1491168 15.5,42.14 L15.5,42.14 L35.11,22.53 L54.64,42.06 C57.7801325,36.0899331 59.4206419,29.4455267 59.4200002,22.7 L59.4200002,22.7 L59.4200002,12.59 Z M6.58367271,39.3702772 L6.72046259,39.3845559 C7.17670136,39.4574672 7.55644239,39.7742364 7.71,40.21 C7.79916506,40.4657855 7.79916506,40.7442145 7.71,41 L7.71,41 L7.21,41.17 C7.32000426,40.9077346 7.32000426,40.6122654 7.21,40.35 C7.13656601,40.1586548 6.988963,40.0050795 6.80067944,39.9241176 C6.61239588,39.8431557 6.39939396,39.8416708 6.21,39.92 C6.01863095,39.9931083 5.86549558,40.1413148 5.78616778,40.3301905 C5.70683998,40.5190662 5.7082246,40.732171 5.79,40.92 L5.79,40.92 L5.83,40.96 C5.93766676,41.2233327 6.14666727,41.4323332 6.41,41.54 L6.41,41.54 L5.89,41.75 C5.65187287,41.6122788 5.46829233,41.3969247 5.37,41.14 C5.18253695,40.7177116 5.24123353,40.2266916 5.52295283,39.8604893 C5.80467212,39.494287 6.26422381,39.3116447 6.72046259,39.3845559 Z M63.93,40.85 L63.22,40.85 L63.69,41.38 L63.93,40.85 Z M40.45,35.93 L29.27,36 C29.468501,38.429173 31.2153652,40.4510066 33.59,41 L33.59,41 L35.11,39.52 L36.52,40.93 C38.7411009,40.2410091 40.3052475,38.2510007 40.45,35.93 L40.45,35.93 Z M63.41,37.63 L63.87,37.8 L63.65,38.41 L65.49,39.06 L65.31,39.57 L63.47,38.92 L63.25,39.54 L62.79,39.38 L63.41,37.63 Z M5.86,37.05 C6.27,36.91 6.63,37.21 6.78,37.66 C6.84306454,37.8788813 6.84306454,38.1111187 6.78,38.33 L6.78,38.33 L6.28,38.5 C6.35977275,38.2872315 6.35977275,38.0527685 6.28,37.84 C6.21,37.62 6.15,37.5 5.99,37.56 C5.83,37.62 5.83,37.93 5.83,38.21 L5.83,38.21 L5.87,38.21 C5.84,38.7 5.76,38.92 5.36,39.05 C4.96,39.18 4.56,38.99 4.36,38.39 C4.25824408,38.1114848 4.23744148,37.8098472 4.3,37.52 L4.3,37.52 L4.83,37.34 C4.71713171,37.6190179 4.71713171,37.9309821 4.83,38.21 C4.92,38.47 5,38.59 5.19,38.54 C5.38,38.49 5.38,38.32 5.38,37.9 C5.32486911,37.5398827 5.5231487,37.1887626 5.86,37.05 Z M64.04,35.62 L64.51,35.77 L64.17,36.84 L64.61,36.98 L64.92,35.97 L65.38,36.11 L65.07,37.12 L65.56,37.27 L65.91,36.18 L66.37,36.32 L65.87,37.93 L63.55,37.21 L64.04,35.62 Z M37.44,31.56 C37.1029894,31.5600439 36.7795935,31.6929956 36.54,31.93 L36.54,31.93 L33.18,35.26 L36.77,35.26 L38.33,33.72 C38.8219452,33.2247342 38.8219452,32.4252658 38.33,31.93 C38.1010391,31.6834201 37.7762892,31.5484117 37.44,31.56 Z M31.04,33.16 C31.0636791,33.9246831 31.3337563,34.6612572 31.81,35.26 L31.81,35.26 L32.21,35.26 L33.42,34.07 C32.7529491,33.5053244 31.9136245,33.1844061 31.04,33.16 Z M329.71,11.99 L334.39,21.23 L339.13,11.99 L344.46,11.99 L334.39,31.12 L324.37,11.99 L329.71,11.99 Z M123.01,11.27 L135.03,21.07 L135.03,12 L139.76,12 L139.76,30.86 L127.74,20.97 L127.74,30.13 L123.01,30.13 L123.01,11.27 Z M222.05,11.27 L234.07,21.07 L234.07,12 L238.8,12 L238.8,30.86 L226.78,20.97 L226.78,30.13 L222.05,30.13 L222.05,11.27 Z M283.93,11.27 L295.95,21.07 L295.95,11.99 L300.69,11.99 L300.69,30.86 L288.67,20.97 L288.67,30.13 L283.93,30.13 L283.93,11.27 Z M182.92,11.74 C188.47,11.74 192.92,15.96 192.92,21.13 C192.92,26.3 188.47,30.49 182.92,30.49 C177.37,30.49 172.92,26.31 172.92,21.13 C172.92,15.95 177.38,11.74 182.92,11.74 Z M407.88,11.77 C409.770532,11.6880187 411.648634,12.1126631 413.32,13 L413.32,13 L413.32,17.55 C411.787783,16.5380247 409.974384,16.0374146 408.14,16.12 C406.42,16.12 405.62,16.55 405.62,17.12 C405.62,17.9926667 407.131156,18.5104 408.686409,18.9492593 L409.11056,19.0672 C409.5336,19.1836 409.95,19.296 410.33,19.41 L410.33,19.41 L410.3,19.43 C413.9,20.55 414.9,22.08 414.9,24.66 C414.9,28.02 412.61,30.41 407.36,30.41 C405.07041,30.4713611 402.800733,29.9700405 400.75,28.95 L400.75,28.95 L400.75,24.01 C402.583397,25.4053761 404.84831,26.1131612 407.15,26.01 C408.97,26.01 410.09,25.62 410.09,24.68 C410.09,23.59 407.41,23.29 404.81,22.29 C402.49,21.43 400.88,19.84 400.88,17.18 C400.88,13.62 404.26,11.77 407.88,11.77 Z M262.28,12 L262.28,21.8 C262.28,24.92 263.56,25.92 265.48,25.92 C267.4,25.92 268.68,24.93 268.68,21.8 L268.68,21.8 L268.68,12 L273.62,12 L273.62,22.33 C273.62,27.81 269.88,30.39 265.48,30.39 C261.08,30.39 257.33,27.81 257.33,22.33 L257.33,22.33 L257.33,12 L262.28,12 Z M158.44,11.74 C160.448323,11.7053569 162.408817,12.3541534 164,13.58 L164,13.58 L164,18.65 C162.562316,17.0869197 160.543553,16.186074 158.42,16.16 L158.42,16.16 L158.42,16.2 C156.669399,16.2 155.051776,17.1339347 154.176475,18.65 C153.301175,20.1660653 153.301175,22.0339347 154.176475,23.55 C155.051776,25.0660653 156.669399,26 158.42,26 C160.550693,25.9684175 162.572207,25.0518526 164,23.47 L164,23.47 L164,28.54 C162.412041,29.7730011 160.45013,30.4257952 158.44,30.39 C152.97,30.39 148.55,26.47 148.55,21.08 C148.55,15.69 152.97,11.74 158.44,11.74 Z M206.65,12 L206.65,25.65 L213.54,25.65 L213.54,30.13 L201.7,30.13 L201.7,12 L206.65,12 Z M92.99,12 L92.99,25.65 L99.88,25.65 L99.88,30.13 L88.04,30.13 L88.04,12 L92.99,12 Z M113.43,12 L113.43,30.13 L108.49,30.13 L108.49,12 L113.43,12 Z M316.25,11.99 L316.25,30.13 L311.31,30.13 L311.31,11.99 L316.25,11.99 Z M365.85,11.99 L365.85,16.44 L357.42,16.44 L357.42,18.94 L365.28,18.94 L365.28,23 L357.42,23 L357.42,25.76 L366.06,25.76 L366.06,30.13 L352.48,30.13 L352.48,11.99 L365.85,11.99 Z M466.33,11.99 L470.31,19.04 L474.29,11.99 L479.6,11.99 L472.76,23.7 L472.76,30.13 L467.87,30.13 L467.87,23.7 L461.02,11.99 L466.33,11.99 Z M384.677956,11.9998935 C386.263294,12.0364492 387.782117,12.664535 388.932076,13.7668003 C390.153908,14.9379573 390.858544,16.5478143 390.89,18.24 C390.963048,20.425482 389.750546,22.4515337 387.79,23.42 L387.79,23.42 L392.37,30.13 L386.7,30.13 L383,24.48 L381.08,24.48 L381.08,30.13 L376.13,30.13 L376.13,12 Z M429.43,11.99 L429.43,30.13 L424.49,30.13 L424.49,11.99 L429.43,11.99 Z M453.32,11.99 L453.32,16.47 L448.53,16.47 L448.53,30.13 L443.59,30.13 L443.59,16.47 L438.7,16.47 L438.7,11.99 L453.32,11.99 Z M53.97,14.89 L54.57,15.38 C55.5174145,16.1316542 56.0036155,17.3234293 55.8523537,18.5233035 C55.7010919,19.7231778 54.9343219,20.7569974 53.83,21.25 C54.7263943,21.7213597 55.2911604,22.6472688 55.3,23.66 L55.3,23.66 L55.3,24.08 L55,24.14 L54.92,24.14 C54.1767662,24.1527557 53.4583547,23.8725752 52.92,23.36 C52.8325288,24.6004469 52.217166,25.7437837 51.23,26.5 C51.2502028,26.6660544 51.2502028,26.8339456 51.23,27 C51.23,28.4966917 50.0166917,29.71 48.52,29.71 C47.0233083,29.71 45.81,28.4966917 45.81,27 C45.8145928,26.8351467 45.8346812,26.6710909 45.87,26.51 C44.8770514,25.7574474 44.2573594,24.6128398 44.17,23.37 C43.6434259,23.8618957 42.9505775,24.1368922 42.23,24.14 L42.23,24.14 L41.8,24.14 L41.73,23.68 C41.739756,22.6887119 42.2822877,21.7793982 43.15,21.3 L43.15,21.3 L43.2,21.3 C42.0772679,20.82165 41.2883547,19.7886794 41.1223669,18.5796327 C40.9563791,17.3705859 41.4377214,16.1632244 42.39,15.4 L42.39,15.4 L43,14.9 L42.89,15.67 C42.8850374,15.7298974 42.8850374,15.7901026 42.89,15.85 C42.9010085,17.4090576 44.1709134,18.665548 45.73,18.66 L45.73,18.66 L51.17,18.66 C51.9205683,18.6653231 52.6425078,18.3722564 53.1769906,17.8452752 C53.7114734,17.3182939 54.0147144,16.6005685 54.02,15.85 L54.02,15.85 L54.02,15.66 L53.97,14.89 Z M17.8728572,16.3020528 C19.4853773,16.3235471 20.9556477,17.2293978 21.7,18.66 L21.7,18.66 L21.8164654,18.4706542 C22.6220901,17.2324244 24.0036543,16.4802065 25.4909258,16.483924 C27.0525608,16.4878274 28.4934887,17.3245566 29.2709258,18.678924 C30.0483628,20.0332913 30.044198,21.6995361 29.26,23.05 L29.26,23.05 L28.69,23.99 L28.63,22.89 C28.6087112,22.6407332 28.554922,22.3953198 28.47,22.16 C28.1000898,22.3190072 27.7025918,22.4039427 27.3,22.41 C26.842108,22.4087574 26.3905763,22.3027158 25.98,22.1 C26.0560357,22.4278185 26.0929598,22.763492 26.09,23.1 C26.0845677,24.734073 25.1658675,26.2279259 23.71,26.97 L23.71,26.97 L23.71,27.51 L23.7045143,27.6592623 C23.6281651,28.6941222 22.7643618,29.51 21.71,29.51 C20.6054305,29.51 19.71,28.6145695 19.71,27.51 L19.71,27.51 L19.71,26.9 C18.3264853,26.1300321 17.4662264,24.6733271 17.46,23.09 C17.4558062,22.7528376 17.496155,22.4165977 17.58,22.09 C17.1517853,22.3066517 16.6798498,22.4229257 16.2,22.43 C15.7974082,22.4239427 15.3999102,22.3390072 15.03,22.18 C14.9447783,22.4112928 14.8942315,22.6539176 14.88,22.9 L14.88,22.9 L14.81,24 L14.13,23.05 C13.2580071,21.6934193 13.2020046,19.9674052 13.9842243,18.5571517 C14.7664441,17.1468981 16.2603372,16.2805585 17.8728572,16.3020528 Z M50.58,26.94 C49.9643338,27.2691016 49.2780815,27.4440959 48.58,27.45 C47.8815543,27.4469244 47.1946314,27.2717591 46.58,26.94 L46.58,26.94 L46.58,27.03 C46.5637701,27.5707508 46.767297,28.0950103 47.1441432,28.4831619 C47.5209895,28.8713136 48.0390058,29.0902435 48.58,29.0900002 C49.1209942,29.0902435 49.6390105,28.8713136 50.0158568,28.4831619 C50.392703,28.0950103 50.5962299,27.5707508 50.58,27.03 C50.584853,27.0001963 50.584853,26.9698037 50.58,26.94 Z M20.44,27.22 L20.44,27.37 L20.4461799,27.500014 C20.5115962,28.1846007 21.0882735,28.72 21.79,28.72 C22.5355844,28.72 23.14,28.1155844 23.14,27.37 L23.14,27.37 L23.18,27.26 C22.7570201,27.3993555 22.3152979,27.4735378 21.87,27.48 C21.3823587,27.4717489 20.8993367,27.3839267 20.44,27.22 L20.44,27.22 Z M48.505,19.369 L48.2840842,19.3773049 C47.0853998,19.453004 45.9934484,20.1122624 45.37,21.15 C46.4447961,21.5315859 47.1621297,22.5494783 47.16,23.69 C47.1564558,23.8852111 47.133001,24.079551 47.09,24.27 L47.09,24.27 L46.62,26.27 C47.1870583,26.6233086 47.8418818,26.8104011 48.51,26.8100006 C49.180423,26.8045047 49.8368997,26.6179271 50.41,26.27 L50.41,26.27 L49.94,24.27 L49.9031495,24.0784182 C49.8830692,23.9499553 49.8719812,23.8201668 49.87,23.69 C49.8663652,22.5520655 50.5791484,21.534948 51.65,21.15 C50.9828989,20.0472819 49.7887997,19.3725211 48.5,19.37 L48.505,19.369 Z M21.79,19.35 C20.8163033,19.3506629 19.8821141,19.7351177 19.19,20.42 C19.7492083,20.9030283 20.0764694,21.6011853 20.09,22.34 L20.09,22.34 L20.3,26.44 C20.7629306,26.6449922 21.2637133,26.7505995 21.77,26.7500218 C22.2325951,26.7516179 22.6910955,26.6633141 23.12,26.49 L23.12,26.49 L23.34,22.38 L23.3510308,22.1853095 C23.4179619,21.4760176 23.7738429,20.8217985 24.34,20.38 C23.6570392,19.7330971 22.7506872,19.3748552 21.81,19.38 L21.81,19.38 Z M24.84,20.93 L24.7068442,21.042784 C24.3246707,21.3973625 24.1002349,21.8938257 24.09,22.42 L24.09,22.42 L23.892,26.106 L24.0377493,26.0048988 C24.9048596,25.3557728 25.4442436,24.3582374 25.5126425,23.2772349 L25.52,23.06 C25.5157053,22.3925465 25.3289705,21.7389748 24.98,21.17 L24.98,21.17 L24.84,20.93 Z M18.81,21 C18.392684,21.6033106 18.1630594,22.3165385 18.15,23.05 L18.15,23.05 L18.14,23.09 C18.1326971,24.2743857 18.6943694,25.3902908 19.65,26.09 L19.65,26.09 L19.47,22.44 L19.4596845,22.2572141 C19.409411,21.7735413 19.1787729,21.3237573 18.81,21 Z M186.535178,17.5348219 C185.097509,16.0971523 182.93244,15.6732017 181.058709,16.4624529 C179.184977,17.251704 177.975747,19.0969728 178,21.13 C177.994682,22.4383269 178.510688,23.6948924 179.433944,24.6219015 C180.3572,25.5489106 181.611662,26.0700108 182.92,26.07 L182.92,26.07 L182.94,26.07 C184.973027,26.0942534 186.818296,24.8850231 187.607547,23.0112914 C188.396798,21.1375597 187.972848,18.9724914 186.535178,17.5348219 Z M45.04,21.76 C44.875578,22.1772194 44.7907818,22.6215516 44.79,23.07 C44.7922307,24.1066214 45.2315691,25.094225 46,25.79 L46,25.79 L46.48,24.18 L46.38,24.18 C46.4196649,24.0196799 46.4398109,23.8551539 46.44,23.69 C46.4497348,22.8084129 45.8810487,22.0244385 45.04,21.76 Z M52,21.76 C51.1430997,22.0099172 50.5555402,22.79741 50.56,23.69 C50.556414,23.8547696 50.5732079,24.0193506 50.61,24.18 L50.61,24.18 L51,25.78 C51.7786558,25.0922207 52.2322796,24.1087643 52.25,23.07 C52.244334,22.6220312 52.1597044,22.1785722 52,21.76 Z M44.39,21.62 C43.3892094,21.7007288 42.5872419,22.4817024 42.48,23.48 C43.4790512,23.3954515 44.2789858,22.6164575 44.39,21.62 Z M52.69,21.62 C52.8010142,22.6164575 53.6009488,23.3954515 54.6,23.48 C54.4889858,22.4835425 53.6890512,21.7045485 52.69,21.62 Z M18.03,17.11 C15.9865464,17.11 14.33,18.7665464 14.33,20.81 C14.3316138,21.1481031 14.3787027,21.4844526 14.47,21.81 C14.9789279,20.6024465 16.1595938,19.8153359 17.47,19.81 C17.8893069,19.810774 18.3041841,19.8957898 18.69,20.06 C19.3229868,19.3982957 20.149052,18.9537606 21.05,18.79 C20.3749258,17.7627122 19.2292423,17.1429163 18,17.14 L18,17.14 Z M25.61,17.1 L25.6,17.13 C24.3908802,17.1490292 23.2687378,17.7624671 22.6,18.77 C23.5112154,18.9290892 24.3482223,19.3738586 24.99,20.04 C25.367127,19.8828578 25.7714456,19.8013146 26.18,19.8 C27.4896016,19.8079694 28.6689507,20.5942021 29.18,21.8 C29.2712973,21.4744526 29.3183862,21.1381031 29.32,20.8 C29.3144877,18.7549299 27.6550775,17.1 25.61,17.1 L25.61,17.1 Z M26.15,20.45 C25.9052994,20.4532121 25.6625153,20.4936761 25.43,20.57 L25.43,20.57 L25.54,20.76 C26.148787,21.6349471 27.2825361,21.9713342 28.27,21.57 C27.7879249,20.8736649 26.9969036,20.4557669 26.15,20.45 Z M17.47,20.45 C16.6195563,20.4525089 15.8240971,20.8707785 15.34,21.57 C16.4063371,21.9991889 17.6256142,21.5713724 18.19,20.57 C17.9572675,20.4945628 17.7146185,20.4541213 17.47,20.45 Z M54.64,16.47 C54.3312781,18.1494804 52.8676191,19.3691962 51.16,19.37 L51.16,19.37 L50.86,19.37 C51.4706818,19.7571018 51.9757724,20.2896803 52.33,20.9200183 L52.33,20.9200183 L52.5019925,20.915488 C53.9814268,20.8320596 55.1593993,19.6113148 55.1700029,18.11 C55.1708432,17.5210982 54.9853216,16.9470314 54.64,16.47 Z M42.24,16.46 C41.8873154,16.9338502 41.697835,17.5093091 41.6999817,18.1 C41.7052856,18.8505685 42.0085266,19.5682939 42.5430094,20.0952752 C43.0774922,20.6222564 43.7994317,20.9153231 44.55,20.91 L44.55,20.91 L44.7,20.91 C45.0545408,20.2825807 45.5597404,19.753324 46.17,19.37 L46.17,19.37 L45.71,19.37 C44.0032251,19.3724398 42.5406237,18.1500928 42.24,16.47 L42.24,16.47 Z M384.2,16.47 L381.03,16.47 L381.03,20.53 L383.87,20.53 C384.447802,20.5691584 385.014209,20.3559377 385.422754,19.9454749 C385.831299,19.5350121 386.041864,18.9676122 386,18.39 C386.042641,17.8899018 385.870959,17.395214 385.52768,17.0290499 C385.184401,16.6628858 384.701807,16.4596784 384.2,16.47 L384.2,16.47 Z M59.42,0.69 L10.68,0.69 L10.67,11.91 L21.27,11.91 L21.27,7.33 L18.37,3.71 L19.42,3.71 L21.68,6.53 L24,3.71 L25,3.71 L22.09,7.33 L22.09,12 L34.64,12 L34.64,7 L32.13,7 L32.13,6.14 L34.64,6.14 L34.64,3.72 L35.46,3.72 L35.46,6.14 L38,6.14 L38,7 L35.46,7 L35.46,11.91 L48.05,11.91 L48.05,7.33 L45.15,3.71 L46.2,3.71 L48.46,6.53 L50.72,3.71 L51.77,3.71 L48.87,7.33 L48.87,11.91 L59.42,11.91 L59.42,0.69 Z"
                  id="Lincoln-Horizontal"/>
        </g>
    </g>
</svg>
