<?xml version="1.0" encoding="UTF-8"?>
<svg width="380" height="80" viewBox="0 0 380 80" fill="none" xmlns="http://www.w3.org/2000/svg">
    <g clip-path="url(#clip0_425_9830)">
        <path d="M380 32.6589V32.3246C379.81 32.3016 379.617 32.3016 379.427 32.3246C378.544 32.5156 378.377 33.5422 378.735 33.5899C378.544 33.4228 379.069 32.3962 380 32.6589Z"
              fill="white"/>
        <path d="M380 38.5079V36.5503C379.718 36.7023 379.411 36.7995 379.093 36.8368C378.245 36.8766 377.414 36.585 376.777 36.0237C376.14 35.4623 375.746 34.6752 375.679 33.8287C375.578 33.2594 375.603 32.675 375.752 32.1163C375.901 31.5576 376.17 31.0383 376.541 30.5947C376.911 30.1511 377.375 29.794 377.898 29.5485C378.421 29.303 378.992 29.1749 379.57 29.1734H380.024V16.0907C380.024 15.6371 380.024 15.3745 380.024 15.3745C380.024 15.3745 379.451 26.1892 368.923 41.6353C372.883 42.0845 376.86 40.9615 380 38.5079V38.5079Z"
              fill="white"/>
        <path d="M363.433 48.7496C368.728 46.8166 374.397 46.1303 380 46.7442V43.6646C375.746 45.8521 370.84 46.4124 366.202 45.2402C365.247 46.3861 364.411 47.5559 363.433 48.7496Z"
              fill="white"/>
        <path d="M343.762 74.4375C341.375 73.96 340.42 75.7028 340.611 76.6338C340.802 77.5649 341.757 77.6365 341.828 77.2784C341.613 77.4933 340.42 76.8009 341.112 75.6789C341.4 75.3598 341.776 75.1324 342.193 75.025C342.609 74.9176 343.048 74.9349 343.455 75.0748C343.862 75.2146 344.219 75.4709 344.481 75.8117C344.744 76.1525 344.9 76.5629 344.932 76.9919C344.969 77.6732 344.767 78.346 344.362 78.895C343.957 79.4439 343.373 79.8346 342.711 80H348.703C348.42 78.7294 347.818 77.5519 346.953 76.5787C346.088 75.6055 344.99 74.8686 343.762 74.4375Z"
              fill="white"/>
        <path d="M337.698 76.395C337.662 75.6608 337.777 74.927 338.037 74.2394C338.297 73.5518 338.696 72.9252 339.209 72.3988C339.722 71.8723 340.338 71.4572 341.019 71.1795C341.7 70.9018 342.43 70.7674 343.165 70.7847C347.128 70.546 351.473 73.936 353 79.9044H357.13C356.545 79.5446 355.979 79.1541 355.435 78.7346C353.091 76.696 351.391 74.0187 350.543 71.0298C349.695 68.041 349.736 64.8698 350.661 61.9038C343.13 68.5854 335.04 74.6077 326.478 79.9044H340.276C339.551 79.6351 338.92 79.1592 338.462 78.5356C338.004 77.9119 337.738 77.1678 337.698 76.395V76.395Z"
              fill="white"/>
        <path d="M380 76.7293C378.021 74.1376 376.623 71.1498 375.902 67.9695C375.182 64.7892 375.154 61.4909 375.822 58.299C371.804 57.7704 367.725 58.6115 364.244 60.6864C357.775 65.1984 359.756 70.8803 362.239 72.4798C364.722 74.0794 367.013 72.0979 366.345 71.2146C366.345 72.1456 362.239 73.2677 361.236 69.3047C360.043 64.53 366.918 59.4927 372.409 63.6705C374.27 65.3174 375.416 67.6253 375.604 70.1039C375.791 72.5824 375.004 75.0363 373.411 76.9442C372.557 78.1095 371.517 79.1258 370.332 79.9522H380V76.7293Z"
              fill="white"/>
        <path d="M53.5934 80C48.0025 76.5332 42.5998 72.7718 37.408 68.7317C39.968 72.2629 42.1748 76.0371 43.9967 80H53.5457H53.5934Z"
              fill="white"/>
        <path d="M0 15.3745V16.0668V29.1734C1.51755 29.1985 2.96368 29.8223 4.0234 30.9089C5.08311 31.9955 5.67055 33.4569 5.65775 34.9746C5.64216 36.8212 5.10203 38.6252 4.1003 40.1765C3.09858 41.7278 1.67655 42.9623 0 43.7362V46.7204C7.33046 47.4225 14.4148 49.7378 20.7451 53.5004C0.93102 32.0621 0 15.3745 0 15.3745Z"
              fill="white"/>
        <path d="M1.90979 35.6431C2.38723 33.4229 1.00264 32.3963 0 32.277V32.6351C0.201374 32.6618 0.395818 32.7266 0.572936 32.8261C0.869476 33.073 1.09732 33.3923 1.23444 33.7531C1.37157 34.1138 1.41336 34.5038 1.35576 34.8854C1.29816 35.267 1.14313 35.6273 0.905636 35.9315C0.668145 36.2357 0.356222 36.4735 0 36.6219L0 38.6034C0.95267 37.8607 1.62581 36.8173 1.90979 35.6431V35.6431Z"
              fill="white"/>
        <path d="M1.90975 59.3494C-3.71401e-05 69.233 6.92294 78.3049 12.342 78.5914C16.257 78.8062 17.1164 75.9892 16.7106 74.6284C16.3048 73.2676 14.7531 73.3153 14.7292 73.8644C15.0157 73.5063 16.9732 74.318 16.1377 76.2518C15.7703 76.8038 15.247 77.234 14.6344 77.4878C14.0218 77.7415 13.3476 77.8073 12.6975 77.6768C12.0475 77.5462 11.4509 77.2253 10.9837 76.7547C10.5166 76.2842 10.1999 75.6853 10.0741 75.0342C9.83948 73.8141 10.0897 72.5505 10.7717 71.5118C11.4537 70.4732 12.5137 69.7414 13.7266 69.4717C14.5388 69.2259 15.3943 69.1576 16.2352 69.2714C17.0761 69.3852 17.8827 69.6784 18.6004 70.1312C19.3181 70.584 19.93 71.1858 20.3948 71.8959C20.8595 72.6059 21.1662 73.4075 21.2941 74.2464C21.6831 76.2311 21.2988 78.2894 20.2198 79.9999H26.6654C24.2213 75.0117 20.7535 70.5946 16.488 67.0365C12.2226 63.4784 7.25524 60.8591 1.90975 59.3494V59.3494Z"
              fill="white"/>
        <path d="M3.22277 80C2.02933 78.9631 0.949051 77.8028 0 76.5383L0 80H3.22277V80Z" fill="white"/>
        <path d="M292.985 80C319.714 71.4946 343.269 55.1502 360.592 33.0886C372.814 18.0961 374.271 6.46971 371.669 0H370.021C371.143 4.03462 371.287 14.6344 357.966 24.2793C355.413 26.124 352.648 27.655 349.73 28.8392C348.894 47.9379 333.688 59.0391 322.42 56.986C319.141 56.5726 316.149 54.909 314.067 52.3424C311.986 49.7758 310.976 46.5045 311.248 43.211C311.314 41.9629 311.644 40.7431 312.215 39.6315C312.787 38.52 313.587 37.542 314.563 36.7618C315.539 35.9816 316.67 35.4169 317.88 35.1048C319.09 34.7926 320.353 34.7401 321.584 34.9508C325.428 35.5237 327.218 39.7255 326.645 43.3542C325.929 47.9141 320.462 49.0122 318.911 45.5745C317.622 42.7335 319.842 41.0624 320.606 42.0651C320.606 40.8714 318.457 41.3489 317.98 43.211C317.502 45.0731 319.006 49.442 324.282 49.3465C325.749 49.3257 327.196 49.0006 328.531 48.3915C325.499 42.2083 326.908 36.2399 330.178 34.0674C330.681 33.657 331.268 33.3635 331.898 33.2084C332.528 33.0533 333.185 33.0405 333.82 33.1708C334.456 33.3011 335.054 33.5713 335.572 33.9618C336.09 34.3522 336.515 34.8532 336.815 35.4282C337.086 35.86 337.266 36.3418 337.347 36.8449C337.427 37.348 337.406 37.8622 337.283 38.3568C337.16 38.8514 336.94 39.3162 336.634 39.7236C336.328 40.131 335.943 40.4726 335.502 40.7281C335.205 40.9163 334.873 41.0406 334.525 41.0931C334.178 41.1456 333.823 41.1251 333.484 41.0331C333.145 40.941 332.829 40.7793 332.555 40.5583C332.282 40.3372 332.058 40.0618 331.897 39.7493C331.014 37.9111 332.685 36.0967 333.95 36.6935C335.216 37.2904 334.499 38.3647 334.261 38.3169C334.452 38.5557 335.072 37.8872 334.786 37.1471C334.499 36.407 332.995 35.4521 331.468 37.1471C329.94 38.8421 329.82 42.638 331.611 46.5533C336.055 42.7872 338.939 37.5028 339.704 31.7278C328.889 33.781 317.478 33.5184 305.112 38.8899C291.887 44.5956 284.964 51.2086 284.821 60.5909C284.654 70.7848 294.012 71.0475 295.11 67.2516C293.32 70.7132 284.63 69.2569 286.373 59.3017C287.037 56.6314 288.443 54.2035 290.428 52.2983C292.414 50.3931 294.897 49.0884 297.593 48.5348C300.554 47.5916 303.722 47.5106 306.728 48.3011C309.733 49.0916 312.452 50.7211 314.566 52.9991C319.579 57.917 319.579 65.5566 315.33 68.9705C312.513 71.1907 306.855 71.8114 304.516 67.5142C302.176 63.217 304.158 59.9224 306.712 59.0391C310.221 57.8215 312.441 61.9278 310.173 63.8138C310.46 63.8138 312.298 62.5724 311.319 60.0418C309.959 56.4369 304.898 54.4315 299.526 55.2671C296.399 55.7684 292.938 58.5616 293.869 61.3548C293.725 59.254 297.306 57.8215 300.433 60.2328C301.61 61.3875 302.511 62.7934 303.067 64.3453C303.624 65.8972 303.822 67.5549 303.648 69.1943C303.473 70.8338 302.93 72.4125 302.06 73.8125C301.189 75.2124 300.013 76.3973 298.619 77.2784C292.961 80.8356 282.577 79.6658 279.927 71.5965C279.509 74.5471 278.571 77.4003 277.158 80.0239H292.914L292.985 80Z"
              fill="white"/>
        <path d="M348.679 16.7114C351.92 15.6039 354.965 13.9925 357.703 11.9367C362 8.47508 362.955 4.20173 362.024 3.39003C362.525 6.39809 358.085 8.76156 354.075 7.92599C352.223 7.4019 350.545 6.38977 349.218 4.99544C347.891 3.60112 346.963 1.87583 346.531 0L329.438 0C333.875 0.738859 338.021 2.69107 341.417 5.64053C344.813 8.59 347.326 12.4217 348.679 16.7114V16.7114Z"
              fill="white"/>
        <path d="M338.677 19.3375C337.37 15.949 335.082 13.0277 332.105 10.9479C329.128 8.86805 325.597 7.72439 321.966 7.66338C323.041 13.5363 326.335 17.2128 329.128 17.2128C331.324 17.2128 331.706 15.3506 331.372 14.5389C331.038 13.7272 330.202 13.8705 330.226 14.1808C330.369 13.9421 331.491 14.3241 331.133 15.5178C330.969 15.8661 330.7 16.1541 330.363 16.341C330.026 16.528 329.639 16.6044 329.257 16.5595C328.874 16.5147 328.515 16.3508 328.231 16.0911C327.947 15.8313 327.751 15.4888 327.672 15.1119C327.461 14.4118 327.524 13.6578 327.847 13.0021C328.171 12.3464 328.731 11.8377 329.414 11.5786C329.863 11.3883 330.348 11.3006 330.835 11.3219C331.322 11.3433 331.798 11.4731 332.228 11.7019C332.658 11.9307 333.032 12.2527 333.321 12.6445C333.611 13.0362 333.81 13.4877 333.902 13.966C334.263 15.2701 334.094 16.664 333.433 17.8443C332.771 19.0246 331.67 19.8959 330.369 20.2686C326.001 21.6532 319.794 17.356 318.648 7.87825C316.458 8.16216 314.399 9.08366 312.728 10.5282C309.171 13.7989 310.651 17.3321 312.203 18.2155C313.754 19.0988 314.972 17.6902 314.59 17.165C314.59 17.7619 312.203 18.7168 311.486 16.234C311.301 15.4412 311.359 14.611 311.652 13.8514C311.945 13.0917 312.459 12.4377 313.128 11.9743C313.798 11.5109 314.591 11.2595 315.405 11.2528C316.219 11.2461 317.016 11.4844 317.693 11.9367C318.918 12.9393 319.729 14.3588 319.972 15.923C320.214 17.4871 319.87 19.0856 319.006 20.4118C318.561 21.3475 317.907 22.1683 317.095 22.8108C316.282 23.4533 315.332 23.9003 314.319 24.1172C313.306 24.3342 312.257 24.3152 311.252 24.0618C310.248 23.8084 309.315 23.3274 308.526 22.6559C306.342 20.7596 304.96 18.1029 304.663 15.2252C304.366 12.3475 305.176 9.46468 306.927 7.16204C308.403 5.21686 310.249 3.58271 312.359 2.35358C314.469 1.12445 316.801 0.324587 319.221 0L307.571 0C306.35 0.294678 305.26 0.982507 304.468 1.95762C304.468 1.95762 307.285 19.6956 296.017 31.0355C304.086 26.2608 323.088 22.4649 338.677 19.3375Z"
              fill="white"/>
        <path d="M104.847 80C103.439 77.3912 102.502 74.5546 102.078 71.6204C99.4283 79.6658 89.0439 80.8595 83.3861 77.3023C81.9927 76.4211 80.8166 75.2363 79.9458 73.8363C79.075 72.4364 78.532 70.8576 78.3575 69.2182C78.183 67.5788 78.3815 65.9211 78.9381 64.3692C79.4948 62.8173 80.3951 61.4114 81.5718 60.2566C84.6991 57.8693 88.2799 59.2778 88.1367 61.3787C89.0677 58.5855 85.6062 55.7923 82.479 55.291C77.1077 54.4076 72.0468 56.413 70.6622 60.0657C69.7073 62.5962 71.5454 63.9332 71.8319 63.8377C69.564 61.9994 71.8319 57.8932 75.2934 59.063C77.8239 59.9463 79.7336 63.4079 77.4896 67.5381C75.2456 71.6682 69.4924 71.2146 66.6755 68.9943C62.4023 65.5804 62.4262 57.9409 67.4394 53.023C69.5534 50.745 72.272 49.1155 75.2775 48.325C78.283 47.5345 81.4514 47.6155 84.4126 48.5586C87.1071 49.1083 89.5899 50.4121 91.5721 52.3183C93.5543 54.2245 94.9542 56.6546 95.6088 59.3256C97.3753 69.2808 88.6858 70.7371 86.8954 67.2754C87.9696 71.0713 97.3514 70.8087 97.1843 60.6147C97.0411 51.2325 90.0226 44.6195 76.8928 38.9138C64.527 33.5661 53.0205 33.8287 42.3018 31.7517C43.0659 37.5267 45.9505 42.8111 50.3945 46.5771C52.185 42.6619 52.0895 38.9138 50.5378 37.171C48.9861 35.4282 47.5537 36.3354 47.2195 37.171C46.8853 38.0066 47.5537 38.5795 47.7447 38.3408C47.506 38.3408 47.0047 37.2187 48.055 36.7174C49.1054 36.2161 50.9913 37.9349 50.0842 39.7732C49.9413 40.0991 49.7273 40.389 49.4579 40.6215C49.1886 40.8541 48.8706 41.0235 48.5274 41.1173C48.1841 41.2111 47.8242 41.227 47.474 41.1638C47.1238 41.1006 46.7922 40.9599 46.5033 40.752C46.0625 40.4965 45.6777 40.1549 45.3717 39.7475C45.0657 39.3401 44.8449 38.8752 44.7223 38.3807C44.5998 37.8861 44.5781 37.3719 44.6585 36.8688C44.7389 36.3656 44.9198 35.8839 45.1904 35.4521C45.4907 34.8771 45.9152 34.3761 46.4333 33.9856C46.9513 33.5952 47.5498 33.325 48.1853 33.1947C48.8208 33.0644 49.4773 33.0772 50.1072 33.2323C50.7371 33.3874 51.3245 33.6809 51.8269 34.0913C55.0974 36.2877 56.6013 42.256 53.4741 48.4154C54.8091 49.0244 56.2561 49.3496 57.7233 49.3703C62.9991 49.3703 64.5747 45.3357 64.0256 43.2349C63.4766 41.134 61.4713 40.8475 61.3997 42.0889C62.1397 41.0862 64.3837 42.7574 63.0946 45.5983C61.5429 49.0361 56.0762 47.9857 55.36 43.3781C54.787 39.7493 56.5536 35.5476 60.4209 34.9746C61.6528 34.764 62.9153 34.8165 64.1254 35.1286C65.3356 35.4408 66.466 36.0055 67.4423 36.7857C68.4186 37.5659 69.2188 38.5439 69.7902 39.6554C70.3616 40.7669 70.6913 41.9868 70.7576 43.2349C71.0253 46.5099 70.0253 49.7626 67.964 52.3216C65.9027 54.8805 62.9376 56.5502 59.6809 56.986C48.4131 59.0391 33.2064 47.9857 32.3709 28.8392C29.4527 27.655 26.6875 26.124 24.1349 24.2793C10.7187 14.6344 10.8619 4.03462 11.9362 0H10.4083C7.80626 6.46971 9.26248 18.0961 21.4851 33.0886C38.8031 55.1556 62.3597 71.5013 89.0916 80H104.847Z"
              fill="white"/>
        <path d="M24.3736 11.9367C27.1193 13.9948 30.1728 15.6062 33.4212 16.7114C34.7761 12.4185 37.2933 8.58464 40.6938 5.63491C44.0942 2.68517 48.2451 0.734796 52.6862 0L35.5459 0C35.11 1.87145 34.1803 3.59176 32.8535 4.98161C31.5266 6.37147 29.8514 7.38001 28.0022 7.90212C23.8723 8.73769 19.5275 6.37422 20.0527 3.36616C19.0978 4.17786 20.0766 8.45121 24.3736 11.9367Z"
              fill="white"/>
        <path d="M51.994 14.1331C51.994 13.8227 51.1585 13.775 50.8482 14.4912C50.5378 15.2074 50.8482 17.0695 53.0922 17.165C55.8375 17.165 59.1319 13.5363 60.2539 7.61564C56.6236 7.67982 53.0948 8.82474 50.1183 10.9041C47.1418 12.9836 44.8526 15.9031 43.5432 19.2898C58.9886 22.4649 77.991 26.2608 85.9405 31.0355C74.7921 19.6956 77.6091 1.95762 77.6091 1.95762C76.8125 0.987782 75.724 0.301161 74.5056 0L62.8321 0C65.2564 0.321581 67.593 1.12002 69.7072 2.34926C71.8214 3.57851 73.6713 5.21422 75.1502 7.16204C76.9113 9.46711 77.7242 12.3584 77.4224 15.2436C77.1206 18.1287 75.7269 20.7891 73.5269 22.6798C72.7401 23.3512 71.8091 23.8323 70.8063 24.0857C69.8035 24.3391 68.7558 24.358 67.7445 24.141C66.7332 23.924 65.7855 23.4768 64.9749 22.8342C64.1644 22.1916 63.5128 21.3709 63.0708 20.4357C62.2132 19.0976 61.8803 17.4898 62.1358 15.9211C62.3914 14.3524 63.2174 12.9334 64.4554 11.9367C65.1322 11.4925 65.9265 11.2609 66.736 11.2717C67.5455 11.2824 68.3333 11.5351 68.9981 11.9971C69.6629 12.4592 70.1743 13.1095 70.4666 13.8645C70.7589 14.6195 70.8187 15.4447 70.6383 16.234C69.8267 18.6213 67.4872 17.7619 67.5349 17.165C67.1052 17.6902 68.4898 18.9794 69.9222 18.2155C71.3545 17.4515 72.9062 13.7989 69.2299 10.5282C67.6073 9.11349 65.6084 8.2011 63.4766 7.90212C62.3308 17.4515 56.1239 21.6771 51.7553 20.2925C51.1078 20.1134 50.5021 19.8079 49.9734 19.3934C49.4446 18.979 49.0032 18.4639 48.6747 17.8778C48.3462 17.2918 48.1371 16.6465 48.0594 15.9791C47.9817 15.3118 48.0371 14.6357 48.2222 13.9899C48.3119 13.5124 48.5076 13.0611 48.7948 12.6693C49.0821 12.2775 49.4536 11.9552 49.882 11.7261C50.3104 11.497 50.7848 11.3669 51.2701 11.3455C51.7555 11.3242 52.2394 11.412 52.6863 11.6025C53.3744 11.857 53.9398 12.3638 54.2679 13.02C54.596 13.6762 54.6621 14.4326 54.4529 15.1358C54.3737 15.5127 54.1781 15.8552 53.8937 16.115C53.6093 16.3747 53.2506 16.5386 52.8681 16.5834C52.4855 16.6283 52.0986 16.5518 51.7619 16.3649C51.4251 16.178 51.1556 15.89 50.9914 15.5416C50.7288 14.3241 51.8508 13.8944 51.994 14.1331Z"
              fill="white"/>
        <path d="M163.478 1.21755C164.052 0.779329 164.65 0.372872 165.268 0L161.067 0C159.539 6.01611 155.17 9.40615 151.231 9.16741C150.495 9.18806 149.761 9.05614 149.078 8.77993C148.394 8.50371 147.776 8.08917 147.26 7.56234C146.744 7.03551 146.343 6.40776 146.082 5.71852C145.82 5.02927 145.704 4.29341 145.741 3.55715C145.773 2.7629 146.046 1.99717 146.523 1.36177C147.001 0.726371 147.66 0.251398 148.414 0L134.401 0C143 5.29283 151.116 11.3322 158.656 18.0483C157.737 15.0778 157.703 11.9038 158.56 8.91456C159.416 5.92535 161.125 3.2506 163.478 1.21755V1.21755Z"
              fill="white"/>
        <path d="M151.876 5.61027C153.111 5.17236 154.215 4.4278 155.083 3.44648C155.952 2.46515 156.557 1.27922 156.841 0L150.682 0C151.379 0.141495 152.002 0.527063 152.44 1.08728C152.877 1.64751 153.101 2.34557 153.069 3.0558C153.038 3.48484 152.882 3.89524 152.619 4.23606C152.357 4.57688 152 4.83311 151.593 4.97295C151.186 5.11279 150.747 5.13009 150.331 5.0227C149.914 4.91531 149.538 4.68795 149.25 4.36885C148.558 3.24679 149.751 2.55446 149.966 2.76932C149.966 2.41122 148.94 2.60221 148.749 3.41391C148.558 4.2256 149.393 6.08774 151.876 5.61027Z"
              fill="white"/>
        <path d="M232.254 0H231.92C230.105 3.98621 227.889 7.77769 225.307 11.316C230.525 7.2624 235.951 3.48521 241.564 0L232.254 0Z"
              fill="white"/>
        <path d="M187.47 47.7469C188.448 47.9379 190.286 47.0307 189.857 44.4046C189.26 41.0146 184.008 37.9588 176.918 38.484C187.446 53.8585 188.019 64.7448 188.019 64.7448C188.019 64.7448 188.878 48.0334 208.692 26.5472C195.753 34.1629 181.43 35.1656 171.475 31.2981C172.454 32.4917 173.385 33.6854 174.244 34.8075C186.562 32.2769 193.987 39.0808 193.557 45.0492C193.564 45.8282 193.413 46.6006 193.114 47.3199C192.814 48.0392 192.373 48.6905 191.815 49.2346C191.258 49.7788 190.596 50.2046 189.87 50.4863C189.143 50.7681 188.368 50.9001 187.589 50.8743C187.021 50.8557 186.464 50.7152 185.955 50.4622C185.446 50.2093 184.997 49.8499 184.64 49.4083C184.282 48.9668 184.023 48.4534 183.881 47.9031C183.739 47.3529 183.718 46.7785 183.817 46.219C183.884 45.3725 184.278 44.5854 184.915 44.024C185.552 43.4626 186.383 43.1711 187.231 43.2109C187.658 43.2803 188.058 43.4645 188.388 43.7437C188.719 44.0229 188.967 44.3867 189.107 44.7962C189.247 45.2056 189.273 45.6454 189.182 46.0684C189.091 46.4914 188.887 46.8818 188.592 47.1978C187.398 47.9379 186.682 46.6965 186.897 46.4816C186.419 46.5293 186.61 47.5559 187.47 47.7469Z"
              fill="white"/>
        <path d="M189.809 20.6983C195.163 19.1862 200.138 16.561 204.408 12.9942C208.678 9.42749 212.147 4.99956 214.588 0L208.095 0C209.198 1.7187 209.6 3.79516 209.217 5.80125C209.083 6.6393 208.771 7.43898 208.303 8.14694C207.834 8.85489 207.221 9.45484 206.502 9.90672C205.784 10.3586 204.977 10.652 204.136 10.7674C203.295 10.8829 202.439 10.8176 201.626 10.5759C200.428 10.3061 199.38 9.58501 198.699 8.56241C198.019 7.53981 197.759 6.29441 197.973 5.08505C198.105 4.43503 198.426 3.83837 198.895 3.36997C199.365 2.90157 199.962 2.5823 200.612 2.45223C201.263 2.32217 201.937 2.38711 202.55 2.6389C203.164 2.89068 203.689 3.3181 204.061 3.8675C204.872 5.72963 202.939 6.54133 202.652 6.25485C202.652 6.78007 204.18 6.70844 204.634 5.4909C205.087 4.27335 204.156 1.21755 200.265 1.43241C194.846 1.74276 187.923 10.8624 189.809 20.6983Z"
              fill="white"/>
        <path d="M172.287 19.3137C175.768 21.3885 179.847 22.2296 183.865 21.701C183.044 17.7662 183.274 13.6847 184.532 9.86696C185.789 6.0492 188.029 2.62971 191.026 -0.0477295H178.303C179.517 0.797436 180.575 1.84763 181.43 3.05582C183.023 4.96368 183.81 7.41758 183.622 9.89615C183.435 12.3747 182.289 14.6826 180.427 16.3295C174.96 20.5073 168.061 15.5178 169.279 10.6953C170.258 6.73234 174.364 7.85439 174.364 8.78546C175.008 7.90214 172.478 6.1355 170.281 7.52016C168.085 8.90482 165.817 14.8016 172.287 19.3137Z"
              fill="white"/>
        <path d="M199.907 80C198.785 75.9176 198.69 65.3656 211.963 55.7684C214.521 53.9258 217.284 52.3875 220.199 51.1847C221.034 32.0859 236.241 20.9848 247.508 23.0379C250.787 23.4513 253.779 25.1149 255.861 27.6815C257.943 30.2481 258.953 33.5194 258.681 36.8129C258.615 38.0688 258.284 39.2965 257.708 40.4148C257.133 41.533 256.326 42.5162 255.342 43.2994C254.358 44.0826 253.219 44.6478 252 44.9577C250.782 45.2676 249.511 45.3151 248.272 45.097C244.429 44.524 242.639 40.3223 243.211 36.6697C243.928 32.1337 249.394 31.0116 250.946 34.4733C252.235 37.3142 250.015 38.9854 249.251 37.9588C249.251 39.1764 251.4 38.6989 251.877 36.8368C252.355 34.9746 250.851 30.6058 245.575 30.6774C244.106 30.7063 242.659 31.0396 241.326 31.6562C244.357 37.8395 242.949 43.8078 239.678 45.9803C239.176 46.3875 238.59 46.6787 237.962 46.8331C237.334 46.9875 236.679 47.0014 236.046 46.8737C235.412 46.746 234.814 46.4798 234.294 46.0943C233.775 45.7088 233.347 45.2133 233.042 44.6434C232.771 44.2117 232.59 43.7299 232.51 43.2267C232.43 42.7236 232.451 42.2094 232.574 41.7148C232.696 41.2203 232.917 40.7554 233.223 40.348C233.529 39.9406 233.914 39.599 234.355 39.3435C234.65 39.1544 234.981 39.0288 235.328 38.9746C235.674 38.9204 236.028 38.9388 236.367 39.0286C236.706 39.1184 237.023 39.2776 237.297 39.4962C237.571 39.7148 237.797 39.988 237.96 40.2984C238.843 42.1605 237.172 43.9749 235.907 43.3542C234.641 42.7335 235.357 41.707 235.596 41.7308C235.405 41.516 234.785 42.1844 235.071 42.9006C235.357 43.6168 236.861 44.6195 238.389 42.9006C239.917 41.1817 240.036 37.4097 238.246 33.4945C233.798 37.2576 230.913 42.5435 230.153 48.3199C240.967 46.2668 252.378 46.5055 264.744 41.1579C277.97 35.4521 284.893 28.8153 285.036 19.433C285.203 9.23903 275.845 8.97643 274.747 12.7962C276.537 9.33453 285.227 10.7908 283.484 20.7222C282.826 23.3981 281.423 25.8326 279.437 27.7427C277.451 29.6528 274.964 30.9602 272.264 31.513C269.323 32.4297 266.183 32.497 263.206 31.7072C260.228 30.9174 257.534 29.3025 255.434 27.0486C250.421 22.1546 250.421 14.4912 254.67 11.1012C257.487 8.85706 263.145 8.26022 265.484 12.5574C267.824 16.8547 265.842 20.1253 263.288 21.0087C259.779 22.2501 257.559 18.12 259.827 16.234C259.54 16.234 257.702 17.4515 258.681 20.006C260.041 23.6109 265.102 25.6162 270.474 24.7807C273.601 24.2554 277.062 21.4861 276.131 18.6929C276.275 20.7699 272.694 22.2262 269.567 19.815C268.39 18.6602 267.489 17.2543 266.933 15.7024C266.376 14.1506 266.178 12.4929 266.352 10.8534C266.527 9.21399 267.07 7.63524 267.94 6.2353C268.811 4.83536 269.987 3.65048 271.381 2.76932C277.039 -0.787825 287.423 0.381975 290.073 8.45121C290.469 5.49453 291.391 2.63249 292.794 0L277.134 0C250.352 8.48902 226.75 24.8538 209.408 46.9591C197.209 61.9278 195.753 73.5064 198.308 80H199.907Z"
              fill="white"/>
        <path d="M262.596 80.0001C263.767 79.6947 264.812 79.0261 265.58 78.0902C265.58 78.0902 262.763 60.3522 274.007 49.0601C265.962 53.8348 246.959 57.5829 231.347 60.7103C232.667 64.0897 234.959 67.0022 237.933 69.08C240.907 71.1577 244.43 72.3076 248.058 72.3844C246.983 66.4877 243.689 62.8351 240.896 62.8351C240.551 62.7916 240.201 62.8353 239.878 62.962C239.555 63.0888 239.269 63.2945 239.045 63.5605C238.822 63.8265 238.669 64.1442 238.6 64.4846C238.532 64.8249 238.549 65.1771 238.652 65.5089C238.962 66.2251 239.822 66.1773 239.798 65.867C239.654 66.0818 238.532 65.6999 238.891 64.5301C239.055 64.1817 239.324 63.8937 239.661 63.7068C239.998 63.5199 240.385 63.4434 240.767 63.4883C241.15 63.5331 241.509 63.697 241.793 63.9567C242.077 64.2165 242.273 64.559 242.352 64.9359C242.563 65.6361 242.5 66.39 242.176 67.0457C241.853 67.7015 241.293 68.2101 240.609 68.4692C240.16 68.655 239.676 68.7392 239.191 68.7157C238.706 68.6923 238.231 68.5619 237.803 68.3337C237.374 68.1055 237 67.7853 236.71 67.396C236.419 67.0067 236.218 66.5579 236.121 66.0818C235.927 65.4219 235.868 64.7294 235.947 64.0461C236.027 63.3627 236.244 62.7025 236.585 62.105C236.926 61.5075 237.385 60.985 237.932 60.569C238.48 60.1529 239.107 59.8518 239.774 59.6838C244.143 58.2752 250.349 62.5963 251.495 72.0741C253.63 71.7601 255.632 70.8498 257.272 69.448C260.829 66.1535 259.349 62.6202 257.797 61.7607C256.246 60.9013 255.028 62.286 255.41 62.8112C255.41 62.2143 257.797 61.2355 258.514 63.7422C258.702 64.5405 258.644 65.3771 258.348 66.1418C258.052 66.9066 257.531 67.5636 256.853 68.0263C256.176 68.489 255.375 68.7356 254.555 68.7337C253.734 68.7318 252.934 68.4814 252.259 68.0156C251.034 67.013 250.223 65.5935 249.981 64.0294C249.738 62.4652 250.082 60.8667 250.946 59.5405C251.384 58.6018 252.034 57.7774 252.845 57.1319C253.655 56.4864 254.604 56.0374 255.617 55.82C256.629 55.6026 257.679 55.6228 258.683 55.8789C259.686 56.1351 260.617 56.6203 261.402 57.2964C263.636 59.1912 265.052 61.8754 265.354 64.7889C265.657 67.7025 264.822 70.6203 263.026 72.9335C260.066 76.7642 255.719 79.2768 250.922 79.9285H262.596V80.0001Z"
              fill="white"/>
        <path d="M228.411 80H240.347C235.951 79.2444 231.847 77.2981 228.479 74.3728C225.112 71.4475 222.612 67.6552 221.249 63.408C218.005 64.5054 214.958 66.1176 212.225 68.1827C207.928 71.6443 206.973 75.8938 207.904 76.7294C207.403 73.7213 211.819 71.3578 215.854 72.1695C217.698 72.6942 219.368 73.7006 220.694 75.0853C222.02 76.4699 222.953 78.1828 223.397 80.0478H228.339L228.411 80Z"
              fill="white"/>
        <path d="M179.735 80C182.289 73.5064 180.833 61.9278 168.634 46.9591C151.292 24.8538 127.691 8.48902 100.908 0L85.2482 0C86.679 2.63503 87.6251 5.50562 88.0412 8.47508C90.7149 0.429723 101.076 -0.763951 106.733 2.7932C108.127 3.67436 109.303 4.85923 110.174 6.25917C111.044 7.65911 111.587 9.23786 111.762 10.8773C111.936 12.5167 111.738 14.1744 111.181 15.7263C110.625 17.2782 109.724 18.6841 108.548 19.8389C105.42 22.2262 101.839 20.7938 101.983 18.7168C101.052 21.51 104.513 24.2793 107.64 24.8045C113.012 25.6879 118.073 23.6825 119.433 20.0298C120.412 17.4754 118.574 16.1385 118.288 16.2578C120.675 18.0722 118.287 22.2023 114.826 21.0325C112.2 20.1253 110.386 16.7114 112.63 12.5574C114.874 8.40346 120.627 8.85706 123.444 11.1012C127.693 14.4912 127.693 22.1546 122.68 27.0486C120.57 29.3332 117.853 30.9689 114.847 31.7638C111.84 32.5588 108.67 32.48 105.707 31.5369C103.007 30.9841 100.52 29.6767 98.534 27.7666C96.5479 25.8565 95.1445 23.422 94.4868 20.746C92.7441 10.8147 101.434 9.3584 103.224 12.8201C102.126 9.0003 92.768 9.26291 92.9351 19.4569C93.0783 28.8392 100.097 35.476 113.227 41.1817C125.592 46.5055 137.099 46.2668 147.818 48.3438C147.081 42.5331 144.193 37.2095 139.725 33.4229C137.934 37.3381 138.03 41.0862 139.582 42.829C141.133 44.5718 142.566 43.6646 142.9 42.829C143.234 41.9934 142.566 41.4443 142.375 41.6592C142.613 41.6592 143.115 42.8051 142.064 43.2826C141.014 43.7601 139.128 42.0889 140.011 40.2268C140.174 39.9164 140.4 39.6432 140.674 39.4246C140.948 39.206 141.265 39.0467 141.604 38.9569C141.943 38.8672 142.297 38.8488 142.643 38.903C142.989 38.9572 143.321 39.0828 143.616 39.2719C144.057 39.5274 144.442 39.869 144.748 40.2764C145.054 40.6838 145.275 41.1486 145.397 41.6432C145.52 42.1378 145.541 42.652 145.461 43.1551C145.38 43.6582 145.2 44.14 144.929 44.5718C144.623 45.1417 144.196 45.6372 143.677 46.0227C143.157 46.4082 142.559 46.6744 141.925 46.8021C141.291 46.9298 140.637 46.9159 140.009 46.7615C139.381 46.6071 138.795 46.3159 138.293 45.9087C135.022 43.7362 133.518 37.7678 136.645 31.5846C135.312 30.968 133.865 30.6347 132.396 30.6058C127.12 30.6058 125.545 34.6404 126.094 36.7651C126.643 38.8899 128.648 39.1525 128.72 37.8872C127.956 38.9138 125.736 37.2426 127.025 34.4017C128.576 30.94 134.043 32.0143 134.759 36.598C135.332 40.2507 133.542 44.4524 129.698 45.0254C128.471 45.2319 127.214 45.1779 126.008 44.8671C124.803 44.5563 123.676 43.9954 122.701 43.2211C121.727 42.4467 120.926 41.476 120.35 40.372C119.775 39.2681 119.438 38.0555 119.362 36.8129C119.09 33.5194 120.1 30.2481 122.181 27.6815C124.263 25.1149 127.255 23.4513 130.534 23.0379C141.802 20.9848 157.008 32.0621 157.844 51.1847C160.758 52.3875 163.522 53.9258 166.08 55.7684C179.353 65.3178 179.257 75.9176 178.135 80H179.735Z"
              fill="white"/>
        <path d="M154.382 79.9999H154.573C155.018 78.135 155.951 76.4221 157.277 75.0374C158.602 73.6527 160.273 72.6463 162.117 72.1217C166.128 71.31 170.568 73.6734 170.067 76.6815C170.998 75.8459 170.067 71.5965 165.746 68.1348C163.013 66.0697 159.966 64.4576 156.722 63.3601C155.378 67.6295 152.885 71.4469 149.517 74.3943C146.148 77.3418 142.034 79.3059 137.624 80.0715H154.335L154.382 79.9999Z"
              fill="white"/>
        <path d="M127.072 80.0001C122.276 79.3485 117.928 76.8359 114.969 73.0052C113.151 70.6871 112.303 67.7534 112.606 64.8227C112.909 61.892 114.338 59.1935 116.592 57.2964C117.377 56.6203 118.308 56.1351 119.312 55.8789C120.316 55.6228 121.365 55.6026 122.378 55.82C123.391 56.0374 124.34 56.4864 125.15 57.1319C125.96 57.7774 126.61 58.6018 127.049 59.5405C127.913 60.8667 128.256 62.4652 128.014 64.0294C127.772 65.5935 126.96 67.013 125.736 68.0156C125.061 68.4814 124.26 68.7318 123.44 68.7337C122.62 68.7356 121.818 68.489 121.141 68.0263C120.464 67.5636 119.943 66.9066 119.647 66.1418C119.35 65.3771 119.293 64.5405 119.481 63.7422C120.293 61.2355 122.632 62.2143 122.584 62.8112C123.014 62.286 121.63 60.9729 120.197 61.7607C118.765 62.5486 117.165 66.1535 120.722 69.448C122.361 70.8798 124.373 71.8155 126.523 72.1457C127.669 62.5963 133.876 58.3468 138.245 59.7554C139.544 60.1228 140.644 60.9894 141.306 62.1659C141.968 63.3424 142.138 64.733 141.778 66.0341C141.681 66.5102 141.48 66.959 141.189 67.3483C140.899 67.7376 140.526 68.0578 140.097 68.286C139.668 68.5141 139.194 68.6446 138.708 68.668C138.223 68.6914 137.739 68.6072 137.29 68.4214C136.606 68.1624 136.046 67.6537 135.723 66.998C135.399 66.3423 135.337 65.5883 135.547 64.8882C135.626 64.5113 135.822 64.1688 136.106 63.909C136.391 63.6493 136.749 63.4854 137.132 63.4405C137.514 63.3957 137.901 63.4721 138.238 63.6591C138.575 63.846 138.844 64.134 139.009 64.4823C139.367 65.6521 138.245 66.0341 138.101 65.8192C138.101 66.1296 138.937 66.1773 139.247 65.4611C139.35 65.1294 139.368 64.7772 139.299 64.4368C139.23 64.0964 139.077 63.7787 138.854 63.5128C138.631 63.2468 138.344 63.041 138.021 62.9143C137.698 62.7876 137.348 62.7439 137.003 62.7873C134.258 62.6679 130.964 66.3922 129.842 72.3367C133.469 72.2599 136.992 71.11 139.966 69.0322C142.94 66.9545 145.232 64.042 146.552 60.6626C131.131 57.5829 112.2 53.8825 104.083 49.0601C115.327 60.3522 112.51 78.0902 112.51 78.0902C113.278 79.0261 114.323 79.6947 115.494 80.0001H127.072V80.0001Z"
              fill="white"/>
    </g>
    <defs>
        <clipPath id="clip0_425_9830">
            <rect width="380" height="80" fill="white"/>
        </clipPath>
    </defs>
</svg>
